<?xml version="1.0" standalone="no"?>
<!DOCTYPE svg PUBLIC "-//W3C//DTD SVG 20010904//EN"
 "http://www.w3.org/TR/2001/REC-SVG-20010904/DTD/svg10.dtd">
<svg version="1.0" xmlns="http://www.w3.org/2000/svg"
 width="1220.000000pt" height="1220.000000pt" viewBox="0 0 1220.000000 1220.000000"
 preserveAspectRatio="xMidYMid meet">
<metadata>
Created by potrace 1.14, written by Peter Selinger 2001-2017
</metadata>
<g transform="translate(0.000000,1220.000000) scale(0.100000,-0.100000)"
fill="#000000" stroke="none">
<path d="M6092 12158 c2 -7 -8 -14 -21 -16 -16 -3 -21 0 -16 8 5 7 -1 7 -14
-2 -18 -11 -23 -11 -31 2 -5 8 -10 10 -10 5 0 -13 -139 -14 -159 -1 -10 6 -12
6 -7 -2 5 -8 -4 -12 -28 -12 -19 0 -38 -5 -42 -12 -4 -7 -3 -8 4 -4 7 4 12 2
12 -3 0 -6 -5 -11 -11 -11 -5 0 -7 -5 -4 -11 14 -22 12 -89 -3 -89 -7 0 -10
-5 -7 -10 4 -6 10 -8 14 -6 14 9 6 -39 -9 -52 -13 -12 -13 -13 0 -9 10 3 15
-3 15 -19 0 -15 -5 -22 -12 -20 -7 3 -10 -1 -6 -9 3 -8 8 -13 12 -11 3 2 6 -7
6 -20 0 -13 -6 -24 -13 -24 -7 0 -10 -5 -7 -10 4 -6 9 -8 13 -6 4 2 7 -7 7
-20 0 -13 -6 -24 -13 -24 -7 0 -10 -5 -7 -10 4 -6 10 -8 14 -6 14 9 6 -39 -9
-52 -13 -12 -13 -13 0 -9 10 3 15 -3 15 -19 0 -15 -5 -22 -12 -20 -7 3 -10 -1
-6 -9 3 -8 8 -13 12 -11 3 2 6 -7 6 -20 0 -13 -6 -24 -13 -24 -7 0 -10 -5 -7
-10 4 -6 10 -8 14 -6 4 3 8 -1 8 -9 0 -8 -3 -15 -6 -15 -4 0 -12 -10 -20 -22
-14 -23 -14 -23 7 -5 20 18 20 18 15 -2 -3 -12 -10 -21 -17 -21 -6 0 -4 -5 4
-11 12 -9 11 -10 -7 -6 -13 3 -23 1 -23 -4 0 -6 -9 -5 -21 2 -17 9 -23 8 -30
-2 -7 -12 -9 -11 -9 1 0 11 -3 11 -12 2 -9 -9 -15 -9 -27 1 -12 10 -13 9 -7
-2 7 -10 3 -12 -13 -6 -14 4 -21 2 -21 -7 0 -8 -3 -9 -8 -3 -8 12 -44 16 -37
4 3 -4 -4 -7 -15 -6 -11 1 -20 6 -20 12 0 5 -5 3 -10 -5 -5 -8 -10 -11 -10 -7
0 4 -10 3 -21 -4 -17 -9 -20 -8 -14 3 6 10 5 11 -5 1 -11 -10 -17 -10 -29 0
-12 10 -13 9 -6 -2 6 -11 2 -13 -19 -9 -14 3 -26 1 -26 -5 0 -5 -8 -3 -17 4
-14 12 -15 12 -9 0 7 -10 3 -12 -14 -6 -13 4 -20 3 -17 -2 4 -5 0 -10 -8 -10
-8 0 -15 5 -15 11 0 6 -4 5 -9 -3 -5 -8 -19 -12 -35 -9 -14 3 -23 2 -21 -2 8
-13 -32 -19 -44 -7 -8 8 -11 8 -11 -1 0 -7 -7 -12 -16 -12 -9 0 -13 5 -9 13 4
6 0 4 -8 -6 -13 -15 -19 -16 -36 -7 -17 8 -21 8 -19 -2 2 -8 -9 -13 -30 -14
-20 -2 -30 2 -26 8 4 7 2 8 -5 4 -6 -4 -8 -12 -5 -18 5 -7 0 -9 -13 -6 -12 3
-27 2 -34 -3 -8 -5 -17 -3 -21 4 -5 8 -8 6 -8 -6 0 -15 -3 -16 -20 -7 -11 6
-20 7 -19 3 3 -19 -2 -27 -10 -14 -7 11 -13 11 -32 -2 -18 -13 -26 -14 -38 -4
-11 9 -13 9 -8 0 4 -6 3 -14 -3 -18 -5 -3 -10 0 -10 7 0 9 -3 9 -8 2 -12 -18
-39 -23 -52 -11 -9 9 -11 9 -7 1 9 -17 -18 -25 -33 -11 -10 9 -11 9 -6 0 4 -7
2 -14 -3 -14 -14 -2 -23 -4 -41 -12 -8 -3 -28 -8 -45 -9 -16 -2 -33 -7 -37
-13 -5 -6 -11 -5 -17 3 -6 10 -10 8 -14 -9 -5 -20 -8 -21 -23 -8 -15 12 -17
12 -9 0 6 -11 4 -13 -8 -8 -10 3 -17 2 -17 -4 0 -6 -4 -8 -9 -4 -5 3 -12 1
-16 -5 -3 -6 -17 -8 -31 -6 -16 3 -22 1 -18 -6 5 -7 0 -9 -14 -6 -12 4 -20 2
-16 -3 3 -5 -4 -9 -15 -9 -12 0 -21 -4 -21 -10 0 -5 -7 -7 -15 -4 -8 4 -15 1
-15 -6 0 -9 -4 -9 -17 1 -9 8 -14 9 -10 3 4 -7 0 -14 -7 -17 -8 -3 -17 -1 -20
6 -2 7 -5 3 -5 -7 -1 -19 -1 -19 -23 0 -19 15 -20 16 -9 2 12 -16 9 -22 -11
-19 -5 0 -8 -3 -8 -9 0 -5 -5 -10 -11 -10 -5 0 -7 6 -3 13 4 6 -4 3 -17 -9
-13 -11 -31 -20 -39 -19 -8 0 -17 -3 -20 -7 -3 -4 -17 -9 -30 -10 -14 -2 -33
-12 -43 -23 -10 -11 -16 -14 -12 -8 4 9 1 11 -9 7 -9 -3 -16 -11 -16 -17 0 -6
-3 -7 -7 -4 -3 4 -12 2 -19 -4 -8 -6 -21 -9 -29 -5 -9 3 -13 2 -10 -4 3 -6 -1
-10 -9 -10 -8 0 -22 -7 -30 -16 -9 -8 -16 -12 -16 -8 0 3 -7 1 -15 -6 -13 -11
-14 -10 -8 6 4 12 -3 9 -21 -11 -15 -16 -25 -24 -21 -18 4 9 1 11 -9 7 -9 -3
-16 -10 -16 -16 0 -5 -4 -6 -10 -3 -5 3 -10 1 -10 -4 0 -6 -7 -11 -15 -11 -8
0 -15 -5 -15 -11 0 -5 -4 -8 -9 -4 -5 3 -13 0 -17 -6 -4 -8 -9 -7 -15 2 -7 11
-9 11 -9 -2 0 -9 -7 -20 -16 -23 -10 -4 -13 -2 -9 7 4 6 0 4 -8 -5 -8 -10 -19
-18 -26 -18 -6 0 -11 -4 -11 -10 0 -5 -5 -10 -11 -10 -5 0 -7 6 -4 13 4 6 0 4
-8 -5 -8 -10 -19 -18 -26 -18 -6 0 -11 -4 -11 -10 0 -5 -5 -10 -11 -10 -5 0
-7 6 -4 13 4 6 -3 1 -15 -13 -12 -14 -18 -18 -14 -10 4 8 -4 4 -19 -8 -17 -17
-32 -22 -49 -18 -12 3 -17 3 -10 0 20 -10 14 -20 -23 -34 -19 -8 -35 -18 -35
-22 0 -5 -4 -6 -10 -3 -5 3 -10 1 -10 -5 0 -6 -4 -8 -10 -5 -6 3 -10 1 -10 -6
0 -8 -4 -8 -15 1 -13 11 -14 10 -9 -4 6 -15 -5 -21 -29 -17 -5 1 -6 -3 -2 -8
9 -16 -30 -32 -45 -18 -7 7 -10 7 -7 2 3 -6 1 -17 -4 -25 -8 -13 -10 -13 -20
0 -9 13 -10 12 -5 -3 4 -13 0 -20 -14 -24 -11 -3 -20 -8 -20 -12 0 -3 -9 -12
-20 -18 -17 -11 -19 -10 -14 5 4 10 2 13 -3 7 -4 -6 -21 -21 -38 -34 -16 -12
-29 -26 -28 -29 2 -4 -3 -7 -10 -7 -7 0 -21 -8 -31 -18 -10 -9 -21 -15 -26
-12 -5 3 -12 0 -16 -6 -5 -8 -2 -10 7 -5 8 4 5 0 -6 -8 -11 -9 -25 -14 -32
-12 -7 3 -12 0 -10 -7 1 -7 -5 -11 -13 -9 -8 2 -12 1 -8 -3 4 -4 0 -14 -8 -23
-14 -13 -17 -13 -26 -1 -8 12 -9 12 -5 -1 2 -8 -2 -21 -9 -28 -8 -7 -14 -10
-14 -6 0 4 -9 -3 -20 -16 -11 -13 -20 -20 -20 -16 0 4 -12 -6 -26 -21 -14 -15
-23 -23 -20 -17 3 6 -1 11 -8 11 -8 0 -12 -5 -10 -12 7 -16 -32 -49 -47 -39
-7 4 -10 3 -6 -3 9 -14 -19 -37 -34 -27 -7 4 -9 3 -6 -3 3 -5 -3 -17 -15 -27
-17 -15 -22 -16 -30 -5 -6 10 -7 6 -3 -10 5 -16 4 -21 -4 -17 -6 4 -11 0 -11
-11 0 -15 -2 -16 -10 -3 -5 8 -10 10 -10 4 0 -6 -11 -24 -25 -40 -15 -16 -25
-24 -23 -19 2 6 -2 10 -7 11 -6 0 -9 -7 -7 -17 2 -14 -1 -17 -12 -13 -10 4
-16 1 -16 -10 0 -13 -42 -46 -47 -35 -1 2 -5 0 -10 -5 -5 -5 -3 -6 4 -2 7 4
13 3 13 -3 0 -5 -9 -12 -19 -16 -11 -3 -23 -15 -26 -26 -7 -20 -7 -20 -21 -2
-12 15 -13 15 -8 1 7 -20 -79 -113 -95 -104 -7 4 -9 1 -5 -8 3 -8 -3 -19 -15
-26 -12 -6 -21 -18 -22 -28 0 -10 -3 -12 -6 -4 -2 6 -9 12 -14 12 -6 0 -8 -4
-5 -8 8 -13 -45 -73 -57 -65 -6 4 -7 1 -2 -7 6 -9 4 -12 -7 -8 -8 4 -15 0 -15
-8 0 -7 5 -10 10 -7 6 3 7 1 3 -5 -4 -7 -14 -12 -22 -12 -9 0 -12 -5 -8 -12 5
-8 2 -9 -10 -5 -9 4 -15 3 -12 -2 7 -11 -33 -57 -46 -53 -5 1 -7 -2 -3 -8 3
-5 1 -10 -4 -10 -6 0 -10 -6 -8 -12 1 -7 -4 -12 -10 -11 -7 2 -12 -3 -10 -10
1 -6 -4 -11 -11 -9 -8 1 -11 -2 -8 -7 4 -5 -2 -14 -11 -20 -10 -6 -14 -11 -9
-11 5 0 -5 -13 -22 -29 -16 -16 -28 -32 -24 -35 11 -12 -14 -6 -28 7 -8 6 -6
2 3 -10 14 -16 15 -23 6 -29 -8 -5 -10 -3 -4 7 4 8 -2 4 -14 -9 -12 -12 -19
-27 -15 -34 5 -7 0 -9 -14 -6 -15 4 -19 2 -15 -8 6 -16 -21 -46 -32 -36 -5 4
-5 2 -2 -5 4 -6 0 -18 -8 -26 -8 -9 -15 -19 -15 -24 -1 -15 -50 -64 -59 -59
-5 4 -7 -4 -3 -16 4 -16 2 -20 -10 -16 -10 4 -15 0 -15 -10 0 -33 -3 -42 -14
-42 -5 0 -7 5 -4 10 3 6 4 10 1 10 -3 0 -10 -10 -17 -21 -8 -16 -8 -20 1 -14
6 4 -1 -11 -17 -34 -17 -24 -34 -38 -42 -35 -12 4 -12 2 0 -13 12 -15 12 -16
-4 -10 -12 4 -16 3 -11 -4 8 -14 -16 -59 -32 -59 -8 0 -11 -6 -7 -17 4 -10 2
-14 -4 -10 -7 5 -14 -5 -18 -24 -4 -17 -13 -33 -21 -36 -8 -3 -11 -9 -8 -14 3
-5 2 -9 -3 -9 -4 0 -13 -10 -19 -23 -36 -71 -49 -93 -62 -103 -9 -7 -12 -16
-7 -24 5 -9 4 -11 -3 -6 -11 6 -17 -13 -13 -37 1 -5 -3 -6 -9 -2 -5 3 -10 1
-10 -5 0 -6 -6 -8 -12 -4 -10 5 -10 4 -1 -6 9 -10 7 -17 -7 -33 -11 -11 -16
-25 -13 -30 4 -6 0 -8 -10 -4 -9 3 -19 1 -23 -5 -4 -6 -3 -8 4 -4 6 3 13 2 17
-4 3 -5 -2 -10 -12 -10 -15 0 -16 -2 -3 -10 14 -9 7 -14 -13 -11 -5 1 -6 -3
-3 -7 6 -11 -27 -85 -35 -78 -3 3 -6 -4 -6 -16 -1 -12 -9 -25 -17 -30 -9 -5
-13 -15 -9 -25 4 -9 -1 -21 -11 -29 -10 -7 -15 -17 -11 -23 3 -6 1 -11 -5 -11
-6 0 -9 -4 -5 -9 3 -5 1 -12 -5 -16 -6 -4 -7 -11 -4 -17 5 -7 2 -9 -8 -5 -12
4 -14 1 -11 -14 3 -10 1 -19 -4 -19 -5 0 -9 -9 -10 -20 -1 -11 -9 -27 -17 -36
-18 -17 -21 -28 -6 -19 6 3 7 -1 4 -9 -3 -9 -11 -13 -17 -9 -6 4 -8 0 -4 -10
4 -12 1 -17 -11 -18 -9 0 -12 -3 -6 -5 16 -6 5 -46 -10 -41 -8 3 -11 -5 -8
-24 3 -18 0 -29 -7 -29 -7 0 -9 -4 -6 -10 3 -5 2 -10 -3 -10 -6 0 -9 -8 -8
-17 0 -10 -4 -18 -11 -18 -6 0 -15 -4 -20 -9 -4 -5 -3 -6 4 -2 6 3 14 2 18 -4
3 -5 2 -10 -2 -10 -5 0 -10 -10 -10 -22 -1 -13 -10 -28 -19 -35 -12 -9 -13
-13 -5 -13 10 0 11 -3 2 -13 -6 -8 -8 -17 -4 -20 3 -4 2 -7 -4 -7 -6 0 -14 -7
-17 -16 -4 -10 -2 -13 7 -8 9 6 9 4 1 -7 -7 -8 -15 -28 -19 -46 -5 -24 -11
-31 -23 -26 -11 3 -13 2 -6 -4 17 -13 13 -45 -4 -38 -12 4 -13 3 -2 -10 10
-12 10 -15 -1 -15 -11 0 -11 -2 1 -10 11 -7 11 -10 2 -10 -7 0 -11 -4 -7 -9 3
-5 1 -13 -5 -16 -6 -4 -8 -16 -4 -27 4 -15 3 -18 -7 -13 -9 6 -11 2 -7 -13 4
-12 2 -25 -3 -28 -5 -3 -9 -14 -9 -25 0 -11 -4 -18 -8 -15 -4 3 -8 -7 -8 -22
1 -18 -4 -26 -13 -24 -12 3 -12 0 -2 -12 15 -18 5 -40 -12 -29 -9 5 -9 3 -1
-8 6 -8 9 -23 7 -34 -2 -11 -5 -26 -5 -32 -1 -7 -8 -13 -17 -14 -10 0 -12 -2
-3 -6 6 -2 12 -11 12 -19 0 -9 -5 -12 -12 -8 -6 4 -8 3 -4 -4 5 -9 -7 -78 -22
-122 -3 -8 -4 -21 -3 -29 2 -8 -3 -10 -11 -6 -10 6 -10 5 -1 -5 10 -11 9 -16
-5 -27 -9 -8 -11 -12 -4 -8 7 4 12 0 12 -10 0 -10 -5 -13 -12 -9 -7 4 -8 3 -4
-5 4 -6 2 -19 -6 -28 -11 -14 -11 -16 1 -9 10 7 11 3 5 -15 -4 -13 -7 -30 -7
-36 0 -7 -5 -13 -11 -13 -6 0 -4 -5 4 -10 10 -7 12 -12 4 -17 -6 -5 -10 -16
-8 -25 1 -10 -5 -22 -14 -28 -15 -8 -15 -10 3 -10 11 -1 15 -4 8 -6 -7 -3 -9
-12 -6 -21 5 -12 3 -14 -8 -8 -12 7 -12 6 -1 -7 8 -10 9 -18 3 -22 -6 -4 -8
-13 -5 -20 3 -8 1 -17 -4 -20 -5 -3 -7 -17 -4 -31 2 -14 -2 -33 -9 -42 -12
-14 -12 -16 0 -8 11 6 13 4 6 -11 -4 -10 -7 -29 -6 -42 0 -16 -3 -21 -12 -16
-9 5 -9 4 1 -7 16 -17 16 -32 0 -23 -10 5 -10 4 -1 -6 10 -11 9 -16 -5 -27 -9
-8 -11 -12 -4 -8 7 4 12 0 12 -9 0 -8 -6 -17 -12 -19 -10 -4 -10 -6 0 -6 15
-1 16 -37 1 -47 -8 -4 -7 -9 2 -15 12 -7 12 -9 0 -9 -11 0 -11 -3 0 -17 12
-15 12 -16 -4 -10 -15 6 -16 4 -7 -13 5 -10 7 -21 3 -23 -16 -10 -98 -5 -112
6 -12 9 -13 9 -7 0 10 -17 -35 -17 -53 0 -10 8 -12 8 -7 0 9 -16 -96 -16 -106
0 -6 9 -8 9 -8 0 0 -17 -42 -17 -59 -1 -11 10 -13 10 -7 1 10 -17 -35 -17 -53
0 -10 8 -12 8 -7 0 9 -16 -96 -16 -106 0 -6 9 -8 9 -8 0 0 -7 -7 -13 -15 -13
-8 0 -15 6 -15 13 0 8 -3 8 -9 -2 -5 -8 -19 -12 -35 -9 -27 5 -52 -14 -41 -32
3 -5 2 -10 -2 -10 -5 0 -9 -9 -10 -20 -1 -13 2 -18 10 -13 7 4 5 -1 -3 -12
-17 -21 -17 -24 2 -36 7 -5 8 -9 2 -9 -7 0 -9 -11 -6 -25 3 -16 -2 -34 -14
-48 -10 -12 -12 -16 -4 -9 21 18 32 15 20 -7 -7 -14 -6 -21 3 -24 9 -4 8 -6
-2 -6 -11 -1 -11 -4 0 -18 12 -15 12 -16 -6 -9 -15 5 -17 4 -8 -5 6 -6 9 -18
6 -27 -5 -11 -3 -13 8 -7 11 7 11 5 -1 -10 -17 -21 -17 -24 2 -36 7 -5 8 -9 2
-9 -7 0 -9 -11 -6 -25 3 -16 -2 -34 -14 -48 -10 -12 -12 -16 -4 -9 21 18 32
15 20 -7 -7 -14 -6 -21 3 -24 9 -4 8 -6 -2 -6 -11 -1 -11 -4 0 -18 12 -15 12
-16 -6 -9 -15 5 -17 4 -8 -5 6 -6 9 -18 6 -27 -5 -11 -3 -13 7 -7 10 6 11 4 4
-6 -13 -21 -16 -51 -4 -44 6 4 7 -2 1 -17 -8 -20 -5 -26 20 -40 16 -9 31 -13
34 -9 2 5 16 11 30 13 18 4 25 1 25 -11 0 -14 2 -14 10 -1 9 13 11 13 20 0 8
-13 10 -13 10 1 0 14 6 16 34 9 19 -4 38 -5 41 -2 3 4 10 0 15 -8 8 -12 10
-11 10 5 1 20 1 20 15 1 15 -20 15 -20 16 0 0 10 3 14 5 8 4 -10 61 -11 71 0
4 3 17 -1 31 -10 13 -9 22 -12 18 -6 -3 6 9 12 29 14 26 3 35 0 36 -12 0 -10
2 -11 6 -2 6 16 33 16 34 0 0 -7 4 -4 9 7 5 11 9 15 9 9 1 -5 13 -9 29 -7 77
8 91 9 87 5 -2 -3 1 -14 7 -26 13 -23 19 -78 8 -71 -4 2 -7 -2 -7 -10 0 -8 5
-11 10 -8 6 3 8 -9 5 -31 -2 -21 0 -36 7 -37 5 0 1 -4 -10 -9 -17 -7 -17 -9
-3 -9 14 -1 17 -8 14 -41 -2 -22 0 -40 4 -40 4 0 8 -16 8 -35 0 -23 -4 -33
-11 -29 -7 3 -5 0 4 -8 10 -8 15 -26 14 -46 -1 -17 2 -32 7 -32 5 0 4 -10 -3
-21 -9 -17 -8 -20 2 -14 9 6 11 2 7 -12 -3 -12 -2 -27 3 -34 4 -8 3 -19 -3
-27 -9 -10 -8 -12 2 -10 10 2 14 -8 14 -34 0 -21 3 -38 8 -38 4 0 8 -5 8 -11
0 -6 -6 -7 -12 -2 -7 4 -6 -4 4 -19 13 -20 14 -28 5 -38 -9 -10 -9 -11 2 -5
11 6 13 4 8 -8 -4 -10 -1 -17 6 -18 7 0 3 -4 -8 -9 -16 -7 -17 -9 -3 -9 11 -1
16 -8 13 -21 -2 -11 0 -20 6 -20 5 0 9 -5 9 -11 0 -5 -5 -7 -11 -3 -6 3 -4 -4
5 -18 9 -13 14 -34 11 -46 -2 -12 1 -22 7 -22 6 0 5 -6 -2 -16 -11 -12 -11
-15 -1 -12 8 2 15 -4 16 -12 2 -8 6 -28 10 -45 4 -16 7 -40 8 -52 1 -13 4 -23
8 -23 4 0 10 -7 13 -16 5 -14 4 -15 -9 -4 -13 11 -14 10 -9 -4 3 -9 11 -16 16
-16 6 0 5 -7 -2 -15 -11 -13 -10 -14 3 -10 12 5 15 0 13 -24 -1 -17 2 -31 7
-31 4 0 5 -4 2 -10 -3 -6 -1 -10 4 -10 6 0 10 -3 9 -7 -4 -14 25 -108 36 -115
7 -5 7 -8 -2 -8 -10 0 -9 -4 3 -16 9 -9 13 -24 10 -35 -4 -11 -2 -19 5 -19 8
0 11 -11 8 -29 -3 -21 -1 -28 9 -24 7 3 13 0 13 -6 0 -6 -5 -11 -12 -11 -6 0
-1 -8 10 -19 24 -20 29 -36 10 -26 -7 4 -4 -1 6 -9 11 -9 14 -16 8 -16 -7 0
-12 -5 -12 -11 0 -5 4 -8 9 -4 5 3 13 0 17 -6 3 -6 1 -15 -6 -19 -8 -5 -7 -9
5 -14 9 -3 13 -10 10 -16 -3 -5 -1 -10 5 -10 6 0 8 -5 5 -10 -3 -5 -1 -10 4
-10 6 0 11 -5 11 -11 0 -5 -6 -7 -12 -3 -10 6 -10 5 -1 -8 7 -8 9 -18 5 -22
-4 -4 0 -6 8 -4 9 2 14 -3 12 -11 -2 -8 2 -17 7 -21 6 -3 12 -18 13 -32 1 -15
6 -24 10 -22 4 3 8 -4 8 -15 0 -12 4 -21 10 -21 5 0 7 -7 4 -15 -4 -8 1 -17
10 -21 9 -3 13 -10 10 -15 -3 -5 -11 -6 -17 -3 -7 4 -8 3 -4 -2 5 -5 14 -9 19
-9 6 0 13 -6 16 -14 3 -8 0 -11 -7 -7 -7 5 -9 1 -5 -8 3 -9 10 -13 15 -10 5 3
9 -2 9 -10 0 -9 4 -16 8 -16 5 0 9 -6 9 -12 2 -24 28 -83 40 -91 7 -4 9 -15 6
-24 -5 -12 -3 -14 7 -8 10 6 12 4 7 -8 -3 -10 -2 -17 4 -17 6 0 8 -4 5 -9 -3
-5 1 -11 9 -15 9 -3 12 -12 8 -22 -5 -13 -3 -15 7 -9 8 5 11 3 8 -6 -2 -7 4
-23 14 -34 11 -11 17 -27 15 -36 -3 -9 0 -23 5 -30 8 -11 9 -10 4 4 -3 9 -1
17 3 17 14 0 20 -26 10 -39 -5 -6 -6 -9 -3 -6 11 7 29 -18 57 -77 15 -32 32
-58 38 -58 6 0 7 -5 4 -10 -3 -6 -1 -10 4 -10 6 0 11 -9 11 -21 0 -11 4 -18 9
-15 5 3 12 -1 15 -10 4 -10 2 -13 -7 -8 -9 6 -9 5 0 -8 7 -8 11 -18 8 -21 -3
-4 -2 -5 1 -2 9 6 34 -21 34 -37 0 -8 11 -24 26 -37 18 -15 23 -28 20 -44 -3
-12 -3 -16 0 -9 4 8 13 4 27 -15 12 -15 21 -31 20 -35 -2 -4 8 -19 22 -34 14
-15 22 -31 18 -37 -3 -6 -1 -7 5 -3 6 3 16 -3 22 -14 6 -11 8 -20 5 -20 -3 0
6 -12 20 -26 14 -14 23 -29 20 -34 -3 -5 0 -12 6 -16 8 -5 10 -2 5 7 -4 8 0 5
8 -5 9 -11 16 -26 16 -34 0 -7 4 -10 10 -7 5 3 10 2 10 -4 0 -5 6 -16 13 -23
33 -34 56 -71 50 -81 -3 -6 -1 -7 5 -3 7 4 12 0 12 -10 0 -10 3 -15 6 -11 3 3
12 0 19 -6 10 -9 10 -15 1 -26 -8 -12 -8 -13 1 -7 8 4 13 2 13 -4 0 -6 3 -9 8
-7 4 3 13 -1 20 -9 10 -11 10 -14 0 -15 -7 0 -3 -4 10 -9 12 -5 22 -14 22 -20
0 -6 -5 -8 -12 -4 -7 4 -8 3 -4 -4 4 -6 13 -9 21 -5 9 3 15 -1 15 -8 0 -8 16
-29 35 -46 19 -18 35 -37 35 -43 0 -5 8 -10 17 -10 9 0 14 -2 11 -5 -3 -3 10
-21 28 -41 19 -19 34 -40 34 -45 0 -5 7 -9 15 -9 9 0 12 -6 8 -17 -4 -11 -3
-14 5 -9 7 4 12 2 12 -4 0 -6 5 -8 10 -5 6 3 10 -3 10 -14 0 -12 5 -21 10 -21
12 0 95 -79 95 -91 0 -4 4 -11 9 -16 6 -5 6 -2 1 7 -5 10 -1 8 13 -4 12 -11
22 -26 22 -35 0 -13 2 -13 9 -3 6 11 10 10 16 -5 5 -10 8 -21 7 -25 -1 -3 5
-9 14 -12 10 -4 13 -2 8 7 -5 9 -4 9 5 1 7 -6 13 -20 14 -32 0 -11 4 -19 8
-16 4 2 12 -4 18 -13 6 -10 11 -14 11 -9 0 5 -6 17 -13 26 -6 9 3 1 20 -18 18
-19 30 -39 26 -45 -3 -6 -1 -7 5 -3 17 10 52 -12 62 -40 6 -15 17 -24 31 -24
14 0 19 -5 16 -14 -4 -11 -1 -13 10 -9 13 5 15 2 10 -12 -7 -16 -5 -16 10 -4
13 11 15 11 9 1 -5 -9 -1 -15 13 -19 20 -5 26 -15 22 -37 -1 -5 4 -5 11 1 10
9 20 5 40 -12 15 -13 24 -26 21 -29 -4 -3 1 -6 10 -6 9 0 17 -4 17 -9 0 -5 13
-14 30 -21 27 -11 34 -21 32 -41 -1 -4 8 -5 18 -2 18 5 25 -5 21 -29 0 -4 7
-4 16 -1 11 4 14 3 9 -5 -4 -8 0 -12 11 -12 10 0 24 -9 31 -20 7 -11 19 -20
28 -20 8 0 13 -4 10 -8 -2 -4 5 -9 16 -9 12 -1 28 -10 37 -19 15 -17 15 -17
-4 -3 -18 13 -19 13 -6 -3 7 -10 17 -15 22 -13 4 3 16 -3 26 -12 10 -10 36
-27 58 -38 22 -11 51 -31 65 -46 14 -14 18 -17 10 -6 -14 18 -14 18 18 0 17
-10 32 -22 32 -26 0 -5 -4 -5 -10 -2 -5 3 -10 1 -10 -5 0 -6 8 -9 18 -5 11 3
29 -3 44 -14 14 -11 28 -17 32 -14 3 3 6 1 6 -5 0 -7 6 -12 13 -12 7 0 23 -9
34 -19 12 -11 24 -17 27 -14 3 4 6 1 6 -6 0 -7 5 -9 10 -6 5 3 10 0 10 -8 0
-8 7 -18 16 -21 15 -6 15 -4 3 11 -7 10 2 5 21 -12 19 -16 28 -21 20 -10 -11
15 -6 13 21 -7 20 -15 39 -24 43 -21 3 3 8 -2 12 -11 3 -9 10 -13 15 -10 5 3
9 1 9 -5 0 -6 7 -8 15 -5 8 4 17 -1 21 -9 3 -9 12 -13 20 -10 9 3 12 0 9 -9
-4 -9 0 -15 9 -15 8 0 13 4 10 9 -3 4 11 -1 30 -13 20 -12 33 -25 30 -30 -3
-5 3 -6 12 -2 13 5 15 3 9 -8 -8 -12 -6 -12 8 0 14 11 18 11 23 -2 3 -9 12
-13 19 -11 7 3 16 0 21 -7 4 -7 3 -10 -3 -6 -5 3 -10 0 -10 -8 0 -11 3 -12 14
-3 10 8 17 8 25 0 6 -6 17 -8 26 -5 10 4 13 2 8 -5 -5 -8 -2 -10 8 -6 9 3 16
1 16 -6 0 -6 5 -8 12 -4 8 5 9 2 5 -10 -5 -13 -3 -15 9 -8 20 11 66 -8 60 -24
-3 -7 5 -9 20 -6 14 2 24 0 24 -7 0 -7 4 -9 10 -6 5 3 27 -3 48 -14 22 -11 42
-17 46 -14 3 4 6 1 6 -6 0 -8 7 -11 15 -7 8 3 15 1 15 -4 0 -5 8 -6 18 -3 14
6 15 4 5 -8 -11 -13 -8 -15 17 -11 17 2 30 0 30 -6 0 -6 9 -9 20 -7 11 2 23
-1 26 -7 5 -7 2 -8 -6 -3 -9 5 -11 4 -6 -4 6 -9 11 -9 22 0 11 9 14 9 14 0 0
-7 5 -9 10 -6 6 3 13 -1 16 -10 5 -11 10 -13 19 -5 9 8 15 8 20 0 3 -6 12 -7
18 -3 7 4 5 -2 -3 -12 -14 -17 -14 -18 8 -6 12 6 22 8 22 4 0 -5 12 -10 26
-11 14 -1 31 -5 37 -9 13 -8 25 -11 70 -16 15 -2 30 -7 35 -12 4 -5 1 -5 -5
-1 -7 4 -13 5 -13 2 0 -3 10 -10 21 -17 15 -8 19 -8 15 0 -4 6 -2 11 3 11 6 0
11 -4 11 -8 0 -5 10 -8 23 -8 14 1 21 -4 19 -13 -3 -12 0 -12 12 -1 13 10 16
10 16 -1 0 -11 2 -11 10 1 7 12 10 12 10 1 0 -7 6 -11 15 -7 8 3 15 1 15 -4 0
-5 7 -7 15 -4 8 4 22 1 30 -6 8 -6 19 -9 25 -5 5 3 10 2 10 -4 0 -6 7 -7 17
-4 10 4 14 2 10 -4 -3 -5 0 -10 8 -10 8 0 11 5 8 10 -4 6 -1 7 8 1 14 -9 34
-14 57 -16 6 -1 12 -5 12 -9 0 -4 10 -5 22 -1 16 4 19 2 13 -9 -8 -12 -6 -12
8 0 11 8 17 9 17 3 0 -6 6 -9 14 -6 8 3 17 1 21 -5 3 -6 12 -11 18 -11 7 0 6
4 -3 10 -9 6 -10 10 -3 10 7 0 17 -8 22 -17 6 -10 11 -13 11 -8 0 7 15 9 35 7
19 -2 33 -8 30 -12 -3 -5 0 -12 6 -16 8 -4 9 -3 5 5 -6 9 0 11 21 7 15 -2 46
-5 68 -5 30 -1 36 -4 25 -11 -9 -6 -10 -10 -3 -10 6 0 15 5 18 10 4 6 11 8 16
4 6 -3 5 -12 -3 -22 -12 -16 -11 -16 6 -2 22 17 47 19 59 5 6 -6 10 -5 14 3 4
10 9 9 20 -5 8 -10 12 -13 9 -6 -4 7 1 11 14 10 15 -1 19 -6 15 -22 -5 -18 -5
-18 5 -2 7 10 23 17 42 17 27 0 29 -2 17 -17 -11 -15 -11 -16 1 -6 8 7 26 13
40 13 14 0 32 -6 39 -13 11 -9 13 -9 7 0 -9 16 10 17 19 3 5 -8 11 -7 21 1 8
6 14 7 14 2 0 -11 29 -11 46 0 14 8 58 -28 50 -42 -3 -5 0 -12 6 -14 10 -4 10
-6 0 -6 -8 -1 -10 -6 -6 -13 10 -15 12 -58 3 -58 -4 0 -10 -7 -13 -16 -5 -13
-3 -14 6 -6 10 8 13 5 13 -14 0 -15 -5 -22 -12 -20 -7 3 -10 -1 -6 -9 3 -8 8
-13 12 -10 14 8 6 -40 -9 -53 -13 -12 -13 -13 0 -9 10 3 15 -3 15 -19 0 -13
-3 -24 -6 -24 -4 0 -10 -7 -13 -16 -5 -13 -3 -14 6 -6 10 8 13 5 13 -14 0 -13
-3 -24 -6 -24 -4 0 -10 -7 -13 -16 -5 -13 -3 -14 6 -6 10 8 13 5 13 -14 0 -15
-5 -22 -12 -20 -7 3 -10 -1 -6 -9 3 -8 8 -13 12 -10 14 8 6 -40 -9 -53 -13
-12 -13 -13 0 -9 10 3 15 -3 15 -19 0 -13 -3 -24 -6 -24 -4 0 -10 -7 -13 -16
-5 -13 -3 -14 6 -6 10 8 13 5 13 -14 0 -13 -3 -24 -7 -24 -5 0 -8 -5 -8 -11 0
-5 4 -8 9 -5 4 3 7 -5 6 -17 -3 -22 -1 -22 131 -22 74 0 134 3 134 8 0 4 5 5
10 2 6 -4 7 -12 3 -18 -5 -9 -3 -9 8 -1 8 6 42 10 77 9 34 -1 62 2 62 7 0 5 5
6 10 3 6 -4 7 -12 3 -18 -5 -9 -3 -9 8 -1 8 6 42 10 77 9 34 -1 65 1 67 6 3 4
19 4 35 -1 28 -8 30 -7 30 16 0 18 4 23 13 18 9 -6 9 -5 0 7 -16 19 -14 91 1
82 6 -3 5 0 -1 8 -7 7 -13 21 -13 31 0 10 6 18 13 18 8 0 9 3 1 8 -15 9 -15
94 0 85 6 -4 6 0 -1 8 -13 16 -15 92 -3 84 4 -2 7 2 7 10 0 8 -3 12 -7 10 -11
-7 -9 89 3 104 9 12 9 13 0 8 -9 -6 -12 8 -11 52 1 40 5 58 12 54 6 -4 5 0 -1
8 -10 12 -10 18 0 29 10 10 9 11 -2 5 -10 -6 -12 -4 -7 4 5 7 14 10 21 7 7 -2
18 1 24 7 8 8 11 8 11 -2 0 -7 4 -9 10 -6 6 3 10 1 10 -4 0 -6 5 -11 11 -11 5
0 8 4 5 9 -9 14 20 21 34 8 10 -9 11 -9 6 1 -9 16 6 16 23 -1 11 -9 13 -9 7 1
-9 16 6 16 23 -1 11 -10 12 -9 6 2 -6 11 -3 13 13 9 12 -4 20 -2 17 2 -7 11
36 7 54 -5 10 -6 12 -4 6 5 -6 9 -2 10 15 5 15 -5 20 -4 16 4 -10 15 7 14 23
-2 9 -7 11 -7 8 -1 -9 15 59 24 74 9 9 -7 10 -6 4 4 -6 11 -4 13 8 8 10 -3 17
-3 17 1 0 4 23 8 51 10 28 1 59 7 69 12 11 6 21 5 30 -3 10 -9 11 -9 6 1 -7
12 15 16 72 14 12 -1 22 4 22 10 0 9 3 9 12 0 7 -7 17 -12 23 -12 5 0 3 5 -5
10 -12 8 -9 10 12 10 15 0 30 5 33 10 3 6 17 8 31 6 13 -3 24 0 24 6 0 7 5 6
14 -1 10 -8 16 -9 21 -1 3 6 11 8 16 5 5 -4 9 -2 9 3 0 6 13 9 29 8 17 -1 27
2 24 8 -4 5 7 7 28 3 26 -5 30 -4 19 4 -12 8 -9 10 12 6 17 -2 25 0 21 6 -4 6
0 8 10 4 9 -3 19 -2 22 4 4 5 11 7 16 4 5 -4 9 -2 9 4 0 5 9 8 20 6 11 -2 20
0 20 4 0 5 10 7 23 7 12 -1 31 5 41 13 11 9 17 11 13 5 -3 -6 0 -11 8 -11 8 0
12 4 9 9 -3 4 0 9 5 9 21 3 26 4 39 12 7 5 12 3 12 -5 0 -8 5 -6 11 5 9 15 13
16 27 5 13 -11 14 -11 7 1 -6 11 -4 13 8 8 10 -4 17 -2 17 4 0 6 7 8 16 5 8
-3 12 -2 9 4 -3 6 -3 11 2 11 4 1 19 3 33 6 14 2 33 5 42 6 9 1 14 6 11 11 -4
5 3 7 15 4 14 -4 20 -2 15 5 -4 7 0 8 11 4 9 -4 15 -3 12 2 -3 5 1 12 10 15
10 4 13 2 8 -7 -4 -6 3 -3 16 8 13 11 20 14 16 8 -10 -18 -2 -16 24 7 14 12
32 18 47 16 13 -3 21 -1 18 4 -3 4 2 11 11 14 8 3 13 2 10 -2 -3 -5 1 -9 8 -9
8 0 12 7 8 15 -3 9 -1 13 5 9 6 -4 16 0 23 8 10 12 16 13 27 3 8 -6 13 -7 12
-2 -4 23 2 26 16 8 13 -16 14 -16 9 -1 -6 17 4 22 35 18 7 -2 10 2 7 7 -3 5
11 16 30 26 24 11 33 12 29 4 -4 -7 0 -5 8 4 8 10 17 15 20 11 4 -3 7 -1 7 7
0 10 4 10 17 -1 9 -8 14 -9 10 -3 -4 7 0 17 8 24 8 7 15 9 15 5 0 -4 7 -2 15
5 12 10 18 10 30 0 13 -11 14 -10 9 5 -5 13 -4 16 4 11 7 -4 12 -3 12 3 0 5
22 21 49 35 42 21 49 22 45 8 -2 -9 1 -7 7 5 7 13 19 23 26 23 8 0 26 9 40 20
14 11 32 20 39 20 8 0 14 5 14 11 0 5 5 7 10 4 6 -3 10 -1 10 6 0 8 4 8 15 -1
13 -11 14 -10 9 5 -5 12 -4 16 3 12 6 -4 13 -3 15 2 1 5 10 11 18 13 8 2 21
10 28 18 12 13 13 13 7 0 -4 -8 1 -6 9 4 9 11 16 16 16 10 0 -5 4 -3 9 5 8 13
12 13 28 0 16 -13 17 -12 5 3 -9 11 -10 18 -2 23 5 3 10 3 10 0 0 -4 7 1 16 9
8 9 20 14 25 10 5 -3 9 -2 8 3 -3 20 2 27 11 13 8 -13 10 -12 10 4 0 16 2 16
16 6 8 -8 14 -9 13 -4 -5 27 1 36 16 24 13 -11 14 -10 9 6 -4 10 -4 16 1 12 4
-4 14 0 22 10 10 11 12 12 8 2 -4 -8 2 -5 13 8 14 15 22 18 25 10 4 -8 6 -7 6
4 1 9 15 21 31 27 17 5 30 15 30 20 0 6 7 11 16 11 8 0 13 4 10 9 -3 5 1 12
10 15 10 4 13 2 9 -7 -4 -6 3 -1 15 13 12 14 19 18 15 10 -4 -8 3 -3 16 11 31
35 76 62 88 54 6 -3 8 0 5 8 -3 8 0 18 7 23 8 5 10 3 5 -7 -4 -8 1 -4 12 8 11
12 22 19 26 16 3 -4 6 -1 6 6 0 8 6 11 16 7 8 -3 12 -2 9 4 -4 6 1 17 9 26 12
12 16 12 17 2 0 -7 4 -3 10 10 5 13 13 20 19 17 5 -3 10 2 10 12 0 15 2 16 10
3 8 -13 10 -13 10 1 0 26 24 41 40 26 9 -9 11 -9 6 0 -8 14 47 73 69 73 8 0
14 6 13 13 -2 6 5 11 14 11 10 -1 15 3 12 8 -3 5 3 12 15 15 11 3 18 10 14 16
-4 6 0 8 10 4 11 -4 14 -2 10 9 -3 9 1 14 12 14 9 0 13 5 10 10 -3 6 -2 10 4
10 5 0 23 12 38 27 15 14 21 23 13 18 -9 -5 -12 -5 -7 1 5 5 12 9 17 9 4 0 32
25 61 55 29 30 50 47 46 37 -3 -9 -4 -17 -1 -17 2 0 9 12 14 26 6 16 14 23 22
18 7 -4 10 -4 6 0 -8 10 23 47 34 40 5 -3 7 -2 6 3 -4 11 49 66 54 56 3 -4 3
-2 1 6 -4 16 82 103 92 93 4 -4 6 -2 5 3 -5 22 1 35 16 35 8 0 13 4 10 9 -3 5
5 17 19 27 13 10 22 21 19 26 -5 7 19 13 39 9 5 -1 6 3 2 9 -3 6 -12 7 -18 3
-7 -4 -6 0 2 10 7 9 17 14 22 11 5 -3 8 0 7 8 -2 7 2 12 9 11 8 -2 10 4 6 14
-4 11 -3 14 5 9 7 -4 12 -2 12 4 0 6 4 9 9 5 5 -3 13 -1 16 5 4 6 3 10 -2 9
-20 -3 -23 2 -9 16 17 18 30 20 20 3 -5 -7 -3 -8 5 -4 7 5 10 10 7 13 -9 9 14
44 24 38 6 -4 7 1 3 11 -4 12 -3 15 5 10 7 -4 12 -2 12 4 0 7 8 19 18 28 10
10 11 13 3 7 -12 -9 -12 -7 -1 12 8 12 18 19 22 17 4 -3 8 0 8 6 0 6 4 9 9 5
5 -3 13 0 17 6 4 8 3 9 -4 5 -26 -16 -10 12 18 33 17 12 28 26 25 30 -2 5 7
21 20 35 14 15 23 32 20 37 -4 5 -2 9 3 9 5 0 15 11 22 25 7 13 17 22 21 19 4
-2 11 1 15 7 5 8 3 9 -6 4 -10 -6 -12 -4 -7 9 4 10 7 20 7 22 0 2 5 4 11 4 5
0 7 -5 3 -12 -5 -7 -3 -8 5 -4 7 5 10 14 7 22 -3 8 1 17 9 20 7 3 11 12 8 20
-4 10 0 12 13 7 11 -4 15 -3 11 4 -9 15 21 45 35 37 7 -4 8 -2 4 5 -4 6 -12 8
-18 5 -21 -13 12 35 39 57 16 12 20 19 10 16 -17 -6 -17 -6 0 17 10 13 22 21
27 18 5 -3 7 2 3 11 -3 10 -2 17 4 17 6 0 7 5 3 12 -5 8 -2 9 11 4 15 -5 16
-4 5 9 -7 8 -8 15 -3 15 5 0 20 20 32 45 12 25 30 49 39 55 11 6 12 9 4 10 -9
0 -7 9 7 29 12 16 21 33 21 38 0 5 7 18 16 29 14 18 14 18 3 -6 -9 -20 -9 -23
1 -13 12 11 15 21 19 66 1 5 5 6 9 3 4 -2 9 5 9 17 1 12 7 23 13 25 5 2 7 9 3
15 -4 7 0 8 13 3 15 -6 16 -5 7 5 -9 9 -9 18 3 41 8 16 19 26 24 23 6 -3 7 0
4 8 -7 18 13 67 34 84 9 8 11 12 5 8 -7 -3 -13 -1 -13 4 0 6 5 11 10 11 6 0
10 7 10 15 0 7 8 19 18 24 11 7 13 10 3 11 -11 0 -11 3 -1 15 7 8 9 15 6 15
-4 0 0 7 8 16 9 8 14 20 11 25 -4 5 -1 9 5 9 6 0 8 4 5 10 -3 5 -2 10 2 10 5
0 9 9 10 20 1 12 10 29 20 38 11 9 12 13 4 7 -12 -9 -12 -7 0 15 7 14 14 27
14 30 4 22 30 78 35 75 4 -3 5 6 3 19 -3 13 1 27 8 31 8 6 10 4 4 -5 -5 -9 -4
-11 3 -6 9 5 9 13 1 28 -8 15 -8 19 0 14 7 -5 11 2 11 18 0 14 4 26 10 26 5 0
6 7 3 17 -5 12 -3 14 7 8 9 -6 11 -4 5 5 -4 7 -2 16 6 21 11 7 11 9 1 9 -7 0
-10 5 -7 10 4 6 10 8 14 5 5 -2 6 6 4 19 -3 12 5 39 16 60 12 21 17 35 11 31
-6 -3 -7 0 -4 9 3 9 11 13 18 9 6 -3 8 -3 4 2 -4 4 -2 15 5 23 9 13 9 14 0 8
-18 -10 -16 9 2 24 8 7 15 18 15 24 0 6 -5 4 -11 -4 -8 -11 -9 -9 -3 10 4 14
9 27 13 30 7 6 12 24 16 57 1 13 8 30 16 40 11 13 11 15 1 9 -12 -7 -12 -4 -1
15 7 13 14 39 15 58 1 18 8 37 16 42 10 7 10 9 0 9 -7 0 -10 5 -7 10 4 6 11 7
17 4 6 -4 6 2 -1 15 -7 11 -8 21 -3 21 7 0 11 17 12 63 1 9 4 15 8 13 4 -2 7
8 6 22 0 15 4 30 10 34 7 5 7 8 -2 8 -7 0 -10 5 -7 10 4 6 12 7 18 4 8 -5 8
-3 0 7 -15 15 -17 33 -4 25 4 -3 6 7 4 22 -4 21 -2 24 6 12 7 -9 11 -10 11 -3
0 6 -4 14 -10 18 -5 3 -7 12 -3 21 4 12 8 12 22 2 14 -12 15 -11 1 6 -17 21
-22 46 -9 46 4 0 6 7 3 15 -4 9 0 15 7 15 11 0 11 3 -1 10 -13 9 -13 10 0 10
13 0 13 1 0 10 -8 5 -10 10 -5 10 6 0 10 12 11 28 2 58 9 97 19 105 6 4 5 11
-5 17 -8 5 -10 10 -4 10 5 0 10 12 10 28 -1 19 3 26 14 24 11 -3 10 2 -4 17
-12 13 -14 21 -7 21 7 0 9 5 6 10 -4 6 -1 17 5 25 10 12 10 18 0 30 -10 12
-10 15 0 15 9 0 9 4 -1 17 -12 15 -12 16 4 10 13 -5 16 -3 10 6 -13 21 -14 49
-1 41 7 -5 8 -3 2 7 -12 20 -14 39 -3 39 6 0 7 4 4 10 -3 6 -1 10 4 10 6 0 11
-6 11 -12 0 -10 2 -10 8 -2 13 21 78 22 66 2 -4 -7 2 -5 13 5 21 18 22 18 32
0 10 -17 10 -17 11 2 1 19 1 19 14 2 8 -10 16 -14 17 -8 2 5 15 10 29 11 42 4
52 1 44 -12 -4 -7 2 -5 13 5 21 18 22 18 32 0 10 -17 10 -17 11 2 1 19 1 19
14 2 8 -10 16 -14 17 -8 2 5 15 10 29 11 42 4 52 1 44 -12 -5 -8 -1 -8 10 1
23 19 57 21 63 4 4 -11 8 -10 18 3 8 12 14 13 19 6 4 -6 14 -8 22 -5 9 3 20 0
25 -8 7 -11 9 -9 9 6 0 17 2 17 10 5 8 -12 10 -12 10 -1 0 10 3 11 14 2 10 -8
16 -9 21 -1 3 6 9 8 13 6 4 -2 7 144 7 325 0 300 -1 329 -17 329 -9 0 -19 6
-21 13 -4 9 -6 9 -6 0 -1 -7 -8 -13 -17 -13 -9 0 -12 5 -8 13 5 7 1 7 -10 -2
-15 -13 -19 -13 -27 0 -7 11 -9 10 -10 -6 0 -11 -3 -15 -5 -8 -3 7 -12 9 -21
6 -12 -5 -14 -3 -8 8 7 11 6 12 -6 3 -19 -15 -70 -15 -63 0 3 6 -2 2 -10 -8
-16 -20 -16 -20 -16 0 0 11 -3 15 -8 9 -10 -16 -62 -17 -62 -2 0 8 -3 7 -9 -2
-7 -11 -13 -12 -23 -3 -11 9 -17 9 -27 -1 -9 -9 -14 -9 -21 3 -7 10 -10 11
-10 3 0 -7 -7 -13 -16 -13 -9 0 -12 5 -8 13 6 8 3 8 -9 -1 -9 -8 -21 -11 -27
-7 -5 3 -10 0 -11 -7 0 -7 -4 -4 -9 7 -5 11 -9 15 -9 8 -1 -14 -40 -14 -60 1
-11 8 -13 8 -7 -1 9 -17 -6 -17 -23 0 -11 9 -13 9 -7 0 9 -17 -16 -17 -33 0
-9 7 -12 8 -7 0 4 -7 0 -10 -10 -9 -12 2 -18 14 -20 39 -1 20 2 35 6 32 5 -3
6 4 3 15 -3 11 -8 20 -12 20 -4 0 -7 9 -7 20 0 14 5 19 16 15 11 -4 11 -2 -2
8 -14 11 -15 16 -5 27 9 10 9 11 0 6 -9 -5 -13 0 -12 16 1 36 -8 116 -16 127
-4 7 1 9 12 5 17 -5 17 -5 1 5 -12 8 -16 22 -14 46 1 19 -1 35 -6 35 -4 0 -8
7 -8 16 0 8 4 12 10 9 6 -3 7 1 4 9 -3 9 -9 16 -13 16 -4 0 -8 7 -8 15 0 8 5
15 11 15 8 0 8 2 0 8 -6 4 -13 15 -17 24 -4 13 -2 16 11 11 15 -5 15 -4 -1 8
-12 9 -19 31 -21 60 -2 26 -6 51 -10 58 -4 6 -2 11 5 11 7 0 4 7 -7 16 -19 15
-19 16 1 10 20 -6 20 -6 1 9 -11 8 -16 15 -11 15 5 0 4 5 -3 12 -16 16 -16 41
1 32 7 -5 6 0 -3 11 -8 10 -14 19 -12 19 2 1 0 9 -4 20 -4 11 -1 28 6 40 12
20 12 20 -5 6 -17 -13 -18 -13 -13 1 4 9 1 22 -5 29 -9 10 -9 11 0 6 6 -3 15
-1 19 5 4 8 3 9 -4 5 -8 -4 -16 3 -22 19 -13 34 -13 37 3 30 6 -4 4 0 -6 8
-12 10 -16 24 -13 41 3 15 1 24 -3 21 -5 -2 -11 4 -14 15 -3 12 -1 18 5 14 6
-4 3 4 -5 17 -8 13 -14 34 -13 46 2 12 -1 20 -6 17 -4 -3 -8 4 -8 15 0 11 -5
23 -10 26 -6 4 -7 12 -3 18 13 21 12 39 -2 33 -7 -2 -15 4 -18 15 -3 13 -1 17
6 12 7 -4 4 6 -7 21 -11 18 -13 25 -5 21 8 -5 6 0 -3 11 -14 16 -15 23 -5 33
9 10 9 12 -2 9 -7 -2 -16 3 -19 11 -3 9 0 11 8 6 7 -4 0 14 -16 41 -16 26 -22
44 -14 39 10 -5 9 -1 -3 12 -9 11 -14 23 -10 26 3 4 1 7 -5 7 -7 0 -12 5 -12
11 0 5 6 7 13 4 6 -4 3 1 -7 9 -11 9 -14 16 -8 16 7 0 12 5 12 11 0 5 -5 7
-10 4 -6 -3 -13 2 -16 12 -3 10 -9 26 -14 35 -5 9 -7 26 -5 37 2 12 0 19 -5
16 -5 -3 -11 -1 -15 5 -3 5 -1 10 5 10 6 0 1 10 -10 22 -11 12 -18 28 -16 35
3 7 1 13 -4 13 -6 0 -10 3 -9 8 1 4 -2 17 -6 29 -4 12 -7 26 -8 30 0 4 -7 14
-16 21 -12 10 -12 12 -1 6 12 -7 13 -5 3 8 -7 8 -9 19 -5 23 4 5 1 5 -5 1 -9
-5 -13 0 -13 13 0 12 -5 21 -11 21 -5 0 -7 5 -4 10 3 5 1 10 -6 10 -7 0 -10
11 -6 33 3 17 3 26 0 20 -7 -18 -26 -16 -19 2 3 8 1 15 -5 15 -6 0 -9 7 -5 15
3 9 0 15 -9 15 -8 0 -15 9 -15 20 0 11 -5 20 -11 20 -8 0 -7 5 1 16 8 8 9 14
4 13 -21 -4 -28 2 -14 11 13 8 12 10 -2 10 -11 0 -18 8 -18 20 0 11 -7 23 -15
26 -11 5 -12 11 -5 25 8 15 7 17 -4 13 -9 -3 -19 3 -26 16 -10 18 -10 21 2 14
9 -6 9 -2 -2 12 -8 10 -18 21 -22 24 -3 3 -8 12 -10 20 -2 8 -11 23 -20 34
-14 15 -15 23 -6 40 10 18 9 19 -4 9 -19 -17 -31 -4 -16 16 7 9 9 13 4 9 -11
-9 -36 16 -36 37 0 10 -5 13 -12 9 -7 -5 -9 -2 -5 9 3 9 0 18 -9 21 -8 3 -14
10 -14 16 0 6 -7 18 -15 27 -8 8 -13 19 -10 24 4 5 -1 9 -9 9 -9 0 -13 7 -11
19 2 12 -5 23 -20 31 -14 7 -22 17 -19 22 3 4 0 8 -5 8 -6 0 -10 3 -10 8 4 21
-3 32 -17 32 -14 0 -15 2 -3 17 12 14 12 16 0 8 -11 -6 -13 -4 -8 8 4 10 2 16
-6 14 -7 -1 -11 4 -9 11 1 8 -2 11 -7 8 -5 -3 -15 2 -22 11 -10 12 -10 14 -1
9 6 -4 12 -2 12 3 0 6 -6 11 -14 11 -19 0 -40 26 -26 35 5 3 10 12 9 18 0 9
-2 9 -6 0 -2 -7 -9 -13 -14 -13 -6 0 -8 4 -5 9 3 5 -1 12 -10 15 -9 4 -14 13
-10 21 3 8 1 14 -5 12 -6 -1 -16 7 -22 18 -7 11 -16 23 -21 26 -5 4 -5 12 -2
18 4 6 4 11 -1 10 -22 -4 -33 3 -33 22 0 13 -4 18 -12 13 -8 -5 -9 -2 -5 10 5
12 0 19 -18 26 -14 5 -25 12 -25 15 0 4 5 3 10 0 6 -3 10 -1 10 4 0 6 -4 11
-8 11 -5 0 -17 7 -28 16 -10 8 -12 12 -4 8 13 -7 13 -5 1 9 -7 9 -17 14 -22
11 -5 -3 -6 3 -2 12 4 12 3 15 -5 10 -7 -4 -12 -1 -12 9 0 9 -4 13 -10 10 -10
-6 -15 9 -10 30 1 5 -1 7 -5 3 -4 -4 -14 0 -23 8 -13 14 -13 17 -1 26 10 7 8
8 -8 3 -12 -3 -25 -1 -29 6 -4 8 -3 9 4 5 8 -5 10 -2 6 8 -3 9 -10 13 -15 10
-8 -5 -13 9 -10 28 0 4 -7 4 -16 1 -9 -4 -14 -2 -10 3 3 5 -8 19 -24 29 -16
11 -29 28 -29 38 0 10 -3 16 -7 14 -5 -3 -17 5 -28 16 -11 11 -13 16 -5 12 10
-5 8 -1 -4 13 -21 24 -32 29 -20 10 5 -7 3 -8 -5 -4 -7 5 -10 14 -7 22 3 9 0
11 -12 7 -15 -6 -15 -5 -3 10 12 15 12 17 -1 12 -19 -7 -42 20 -32 37 6 9 3 9
-10 -1 -15 -12 -17 -12 -14 0 2 8 -3 13 -11 11 -12 -3 -12 0 -1 13 11 13 10
15 -2 10 -8 -3 -21 1 -28 10 -8 10 -9 15 -1 15 6 0 11 5 11 11 0 8 -5 7 -15
-1 -13 -11 -18 -10 -29 6 -8 10 -12 22 -9 27 2 4 1 7 -4 6 -22 -4 -32 2 -26
16 3 9 2 15 -3 14 -21 -4 -35 2 -29 11 3 6 -1 10 -10 10 -9 0 -14 4 -11 9 3 5
-6 12 -20 15 -21 6 -24 10 -14 21 10 12 8 13 -10 10 -19 -4 -20 -2 -8 12 10
13 10 15 0 9 -15 -9 -45 12 -36 25 3 5 -2 6 -10 3 -15 -6 -21 6 -17 30 1 5 -6
3 -15 -5 -16 -12 -17 -12 -11 3 4 12 2 15 -9 11 -9 -3 -14 1 -14 13 0 9 -3 15
-6 11 -8 -7 -34 17 -34 32 0 6 -8 7 -17 4 -13 -5 -15 -2 -10 11 4 10 3 15 -3
11 -12 -8 -53 19 -43 28 3 4 0 7 -9 7 -17 0 -51 34 -42 42 3 3 -3 5 -13 5 -11
-1 -18 4 -17 14 1 11 -5 15 -17 12 -12 -3 -30 6 -48 25 -17 16 -33 27 -36 24
-3 -3 -5 2 -5 12 0 9 -4 14 -10 11 -5 -3 -10 -1 -10 4 0 6 -7 11 -15 11 -8 0
-19 9 -25 21 -7 11 -17 18 -24 16 -15 -6 -58 28 -48 38 4 5 -1 5 -11 2 -10 -4
-16 -3 -12 2 3 5 -4 12 -15 16 -11 4 -17 11 -14 17 5 7 1 9 -9 5 -9 -3 -20 0
-24 7 -5 6 -23 18 -40 25 -18 8 -33 17 -33 22 0 5 -12 14 -26 19 -14 6 -23 14
-20 18 2 4 -5 9 -16 9 -12 1 -25 8 -29 15 -5 7 -9 9 -9 3 0 -5 -5 -2 -11 8 -5
9 -19 17 -29 17 -10 0 -22 5 -26 12 -5 7 -3 8 7 3 8 -5 5 1 -5 13 -21 25 -36
31 -16 7 7 -8 9 -15 4 -15 -13 1 -45 26 -39 31 2 3 -6 6 -18 6 -12 1 -26 8
-32 16 -5 8 -16 12 -24 9 -8 -3 -11 0 -7 7 4 7 0 11 -12 11 -11 0 -25 7 -32
15 -7 8 -16 12 -21 9 -5 -3 -19 5 -32 18 -13 13 -28 23 -35 24 -28 2 -33 4
-28 13 3 5 0 9 -7 8 -30 -1 -47 4 -47 13 0 5 8 7 18 4 14 -5 14 -4 2 4 -10 8
-18 8 -27 0 -10 -8 -13 -6 -14 8 0 13 -2 15 -6 5 -4 -10 -9 -8 -19 10 -7 13
-13 18 -14 10 0 -10 -10 -5 -29 13 -18 18 -31 24 -36 17 -3 -6 -11 -9 -16 -5
-5 3 -7 9 -4 14 3 4 -4 6 -15 3 -12 -3 -20 0 -20 6 0 7 -4 9 -10 6 -5 -3 -10
2 -11 12 0 10 -3 13 -5 7 -7 -18 -72 7 -78 30 -4 16 -7 17 -20 6 -15 -11 -20
-7 -17 13 1 5 -3 6 -9 2 -5 -3 -23 3 -39 15 -21 14 -32 17 -37 9 -5 -8 -9 -7
-16 4 -5 9 -15 14 -23 11 -8 -4 -15 -2 -15 3 0 5 -10 9 -22 10 -11 1 -24 7
-28 14 -6 8 -9 8 -13 -2 -4 -10 -6 -10 -6 -1 -1 6 -10 12 -21 12 -11 0 -20 4
-20 10 0 5 -7 6 -17 3 -12 -5 -14 -3 -8 7 6 9 4 11 -5 5 -7 -4 -16 -2 -21 6
-7 11 -9 11 -9 1 0 -7 -5 -10 -10 -7 -6 4 -8 10 -5 15 3 4 -5 6 -17 3 -18 -4
-20 -2 -8 5 10 8 4 10 -24 8 -22 -2 -43 2 -51 11 -8 7 -17 13 -20 12 -3 -1
-19 1 -36 5 -21 4 -28 10 -23 18 5 10 4 10 -5 2 -13 -12 -51 -7 -51 6 0 4 -7
11 -16 14 -8 3 -13 2 -10 -3 4 -5 -3 -7 -14 -4 -11 3 -18 9 -15 13 2 4 -6 6
-19 5 -14 -2 -36 3 -50 11 -15 7 -24 8 -20 3 4 -6 -6 -3 -22 7 -15 11 -25 14
-21 7 5 -7 0 -9 -13 -6 -11 3 -20 9 -20 14 0 5 -7 5 -17 2 -10 -4 -14 -2 -10
4 3 5 0 10 -8 10 -8 0 -12 -4 -9 -9 3 -4 -2 -5 -10 -2 -9 3 -16 11 -16 18 0 6
-5 4 -10 -4 -6 -10 -10 -11 -10 -3 0 7 -3 12 -7 12 -26 -4 -63 2 -59 10 8 12
-27 8 -36 -4 -5 -6 -8 -5 -8 4 0 7 -6 11 -14 8 -7 -3 -25 1 -40 8 -15 8 -24
10 -21 5 3 -6 -1 -7 -9 -4 -9 3 -16 11 -16 18 0 6 -5 4 -10 -4 -6 -10 -10 -11
-10 -2 0 6 -5 12 -11 12 -5 0 -7 -6 -3 -12 4 -7 -2 -5 -13 5 -13 11 -23 14
-27 8 -7 -11 -37 -3 -48 13 -5 8 -8 7 -8 -1 0 -8 -9 -9 -31 -3 -18 5 -36 7
-40 4 -5 -3 -9 0 -9 6 0 6 -5 8 -11 4 -6 -3 -15 0 -20 7 -6 10 -9 11 -9 2 0
-7 -5 -13 -11 -13 -5 0 -8 4 -5 8 3 4 -13 7 -35 6 -21 -1 -39 2 -39 7 0 5 -5
9 -11 9 -5 0 -7 -5 -3 -12 5 -7 3 -8 -7 -2 -8 4 -24 8 -37 9 -12 0 -27 7 -33
15 -9 13 -10 13 -6 -1 4 -13 1 -16 -16 -11 -12 2 -28 10 -36 16 -11 8 -13 8
-7 -1 4 -8 2 -13 -6 -13 -8 0 -20 6 -27 13 -11 10 -12 9 -6 -3 8 -13 6 -13 -7
-2 -11 9 -18 10 -23 2 -4 -7 -12 -7 -26 0 -11 6 -24 8 -30 5 -5 -4 -17 -1 -26
7 -12 9 -15 9 -9 1 5 -9 2 -11 -8 -7 -9 3 -16 13 -16 21 0 8 5 11 13 7 10 -6
10 -4 0 7 -7 7 -13 21 -13 31 0 10 6 18 13 18 8 0 8 3 1 8 -15 10 -16 104 -1
96 8 -5 8 -2 0 7 -7 7 -13 21 -13 31 0 10 6 18 13 18 8 0 8 3 1 8 -15 10 -16
104 -1 96 8 -5 8 -2 0 7 -7 7 -13 21 -13 31 0 10 6 18 13 18 8 0 8 3 1 8 -15
10 -16 104 -1 96 8 -5 8 -2 0 7 -7 7 -13 21 -13 30 0 10 6 20 13 22 10 4 10 6
0 6 -7 1 -13 8 -13 17 0 9 5 12 13 8 9 -6 9 -4 -1 8 -7 9 -11 22 -10 29 2 8
-7 15 -19 17 -13 2 -23 8 -23 15 0 6 -6 3 -13 -8 -9 -11 -16 -14 -21 -7 -3 5
-20 8 -37 5 -22 -3 -29 -1 -24 7 4 7 -1 7 -14 -2 -18 -11 -23 -11 -31 2 -5 8
-10 10 -10 5 0 -14 -83 -15 -92 -1 -5 8 -8 7 -8 -2 0 -7 -4 -10 -10 -7 -5 3
-10 1 -10 -5 0 -6 -5 -8 -10 -5 -6 4 -8 10 -5 15 3 5 1 12 -5 15 -6 4 -9 1 -8
-7z m2033 -1048 c3 -5 1 -10 -4 -10 -6 0 -11 5 -11 10 0 6 2 10 4 10 3 0 8 -4
11 -10z m285 -125 c11 -13 10 -14 -4 -9 -9 3 -16 10 -16 15 0 13 6 11 20 -6z
m-2670 -168 c0 9 5 9 18 -2 16 -14 17 -36 12 -280 -3 -172 -1 -266 5 -269 6
-3 1 -5 -10 -5 -16 -1 -17 -3 -6 -10 15 -10 22 -61 9 -61 -4 0 -8 -5 -8 -11 0
-5 3 -8 8 -6 4 3 7 -6 7 -19 0 -13 -3 -24 -7 -24 -5 0 -8 -5 -8 -11 0 -5 4 -8
8 -5 15 9 7 -39 -8 -52 -13 -12 -13 -13 0 -9 10 3 15 -3 15 -19 0 -15 -5 -22
-12 -20 -7 3 -10 -1 -6 -9 3 -8 8 -13 12 -11 3 2 6 -7 6 -20 0 -13 -3 -24 -7
-24 -5 0 -8 -5 -8 -11 0 -5 3 -8 8 -6 4 3 7 -6 7 -19 0 -13 -3 -24 -7 -24 -5
0 -8 -5 -8 -11 0 -5 4 -8 8 -5 15 9 7 -39 -8 -52 -13 -12 -13 -13 0 -9 10 3
15 -3 15 -19 0 -15 -5 -22 -12 -20 -7 3 -10 -1 -6 -9 3 -8 8 -13 12 -11 3 2 6
-7 6 -20 0 -13 -3 -24 -7 -24 -5 0 -8 -5 -8 -11 0 -5 3 -8 8 -6 4 3 7 -6 7
-19 0 -13 -3 -24 -7 -24 -5 0 -8 -5 -8 -11 0 -5 4 -8 8 -5 15 9 7 -39 -8 -52
-13 -12 -13 -13 0 -9 10 3 15 -3 15 -19 0 -15 -5 -22 -12 -20 -7 3 -10 -1 -6
-9 3 -8 8 -13 12 -11 3 2 6 -7 6 -20 0 -13 -3 -24 -7 -24 -5 0 -8 -5 -8 -11 0
-5 3 -8 8 -6 4 3 7 -6 7 -19 0 -13 -3 -24 -7 -24 -5 0 -8 -5 -8 -11 0 -5 4 -8
8 -5 15 9 7 -39 -8 -52 -13 -12 -13 -13 0 -9 10 3 15 -3 15 -19 0 -15 -5 -22
-12 -20 -7 3 -10 -1 -6 -9 3 -8 8 -13 12 -11 3 2 6 -7 6 -20 0 -13 -3 -24 -7
-24 -5 0 -8 -5 -8 -11 0 -5 3 -8 8 -6 4 3 7 -6 7 -19 0 -13 -3 -24 -7 -24 -5
0 -8 -5 -8 -11 0 -5 3 -8 8 -6 4 3 7 -6 7 -19 0 -13 -3 -24 -7 -24 -5 0 -8 -5
-8 -11 0 -5 3 -8 8 -6 4 3 7 -6 7 -19 0 -13 -3 -24 -6 -24 -4 0 -10 -7 -13
-16 -6 -15 -4 -15 11 -3 9 8 14 9 10 3 -6 -10 -9 -592 -4 -747 1 -41 -2 -57
-11 -57 -7 0 -10 -5 -7 -10 4 -6 9 -8 13 -6 4 2 7 -7 7 -20 0 -13 -6 -24 -13
-24 -7 0 -10 -5 -7 -10 4 -6 10 -8 14 -6 14 9 6 -39 -9 -52 -13 -12 -13 -13 0
-9 10 3 15 -3 15 -19 0 -15 -5 -22 -12 -20 -7 3 -10 -1 -6 -9 3 -8 8 -13 12
-11 3 2 6 -7 6 -20 0 -13 -6 -24 -13 -24 -7 0 -10 -5 -7 -10 4 -6 9 -8 13 -6
4 2 7 -7 7 -20 0 -13 -6 -24 -13 -24 -7 0 -10 -5 -7 -10 4 -6 10 -8 14 -6 14
9 6 -39 -9 -52 -13 -12 -13 -13 1 -9 12 4 15 -1 14 -17 -2 -14 3 -23 11 -23 8
0 14 3 14 6 0 3 11 6 25 6 14 0 25 -4 25 -8 0 -5 5 -5 10 -2 6 3 10 0 10 -7 0
-8 3 -9 8 -2 10 15 61 11 73 -6 9 -13 10 -13 6 1 -5 14 5 16 81 15 48 -1 93
-5 100 -10 7 -4 16 -5 19 -2 4 3 1 6 -6 6 -7 0 -9 5 -6 10 4 6 12 7 18 3 7 -4
21 -6 32 -4 14 2 17 0 10 -11 -6 -8 -2 -5 8 5 9 11 17 15 17 11 0 -10 167 -10
191 0 11 5 14 16 11 36 -3 21 0 30 9 30 11 0 11 2 -1 10 -13 8 -13 13 -2 31 8
11 9 19 4 15 -5 -3 -9 8 -10 25 0 20 3 27 11 23 8 -5 8 -3 0 7 -7 7 -13 21
-13 31 0 10 6 18 13 18 8 0 8 3 1 8 -15 10 -16 104 -1 96 8 -5 8 -2 0 7 -7 7
-13 21 -13 31 0 10 6 18 13 18 8 0 8 3 1 8 -15 10 -16 104 -1 95 9 -5 9 -3 1
8 -15 19 -15 111 0 102 6 -3 5 0 -1 8 -7 7 -13 21 -13 31 0 10 6 18 13 18 8 0
9 3 1 8 -15 9 -15 94 0 85 6 -4 6 0 -1 8 -13 16 -15 92 -3 84 4 -2 7 2 7 10 0
8 -3 12 -7 10 -11 -7 -9 89 3 104 9 12 9 13 0 8 -9 -6 -12 8 -11 52 1 39 5 58
12 54 6 -3 5 0 -1 8 -7 7 -13 21 -13 31 0 10 6 18 13 18 8 0 9 3 1 8 -15 9
-15 94 0 85 6 -4 6 0 -1 8 -13 16 -15 92 -3 84 4 -2 7 2 7 10 0 8 -3 12 -7 10
-11 -7 -9 89 3 104 9 12 9 13 0 8 -9 -6 -12 8 -11 52 1 39 5 58 12 54 6 -3 5
0 -1 8 -7 7 -13 21 -13 31 0 10 6 18 13 18 8 0 9 3 1 8 -15 9 -15 94 0 85 6
-4 6 0 -1 8 -13 16 -15 92 -3 84 4 -2 7 2 7 10 0 8 -3 12 -7 10 -11 -7 -9 89
3 104 9 12 9 13 0 8 -9 -6 -12 8 -11 52 1 39 5 58 12 54 6 -3 5 0 -1 8 -7 7
-13 21 -13 31 0 10 6 18 13 18 8 0 9 3 1 8 -15 9 -15 94 0 85 6 -4 6 0 -1 8
-13 16 -15 92 -3 84 4 -2 7 2 7 10 0 8 -3 12 -7 10 -11 -7 -9 89 3 104 9 12 9
13 0 8 -9 -6 -12 8 -11 52 1 39 5 58 12 54 6 -3 5 0 -1 8 -7 7 -13 21 -13 31
0 10 6 18 13 18 8 0 9 3 1 8 -15 9 -15 94 0 85 6 -4 6 0 -1 8 -16 19 -14 91 1
82 6 -3 5 0 -1 8 -7 7 -13 21 -13 31 0 10 6 18 13 18 8 0 9 3 1 8 -15 9 -15
93 0 85 6 -3 5 0 -1 8 -7 7 -13 19 -13 27 0 8 5 10 13 6 9 -6 9 -4 1 7 -17 21
-13 45 8 45 10 0 18 -7 18 -16 0 -11 2 -12 8 -2 5 7 16 10 24 7 9 -4 19 -1 23
5 5 7 11 8 19 1 7 -6 38 -11 69 -12 38 -1 54 -6 50 -13 -4 -6 0 -5 9 2 12 9
18 10 23 2 4 -6 13 -9 20 -6 7 2 18 -1 25 -7 8 -8 11 -8 7 -1 -4 7 2 9 18 6
15 -2 22 -9 18 -16 -4 -6 1 -5 10 3 14 11 17 11 17 0 0 -11 2 -11 10 1 6 9 10
10 10 3 0 -6 9 -10 20 -8 11 2 20 -2 20 -8 0 -7 4 -6 10 3 5 8 10 10 10 3 0
-6 9 -9 20 -6 13 3 20 0 20 -8 0 -11 2 -11 10 1 5 8 10 10 10 3 0 -6 11 -10
25 -8 14 1 28 -1 30 -5 3 -5 14 -6 25 -3 15 4 20 0 20 -13 0 -11 4 -15 8 -9
10 15 32 17 46 5 7 -5 16 -7 19 -3 4 3 7 1 7 -5 0 -7 5 -12 11 -12 5 0 7 6 4
13 -4 6 1 3 9 -7 10 -13 16 -15 16 -7 0 9 4 10 13 4 6 -6 20 -9 30 -8 16 3 22
-7 17 -30 -1 -5 8 -1 19 9 12 11 21 14 21 8 0 -5 9 -8 20 -5 11 3 20 0 20 -6
0 -6 3 -10 8 -10 21 4 32 -2 26 -13 -5 -10 -4 -10 6 -1 8 7 21 8 34 3 11 -4
26 -9 31 -11 6 -2 9 -8 7 -13 -2 -5 4 -4 12 4 9 7 16 8 16 2 0 -5 12 -9 26 -9
15 0 29 -4 33 -9 3 -5 17 -11 31 -12 14 -2 34 -11 44 -20 12 -11 16 -12 11 -3
-5 9 -3 12 6 9 8 -3 13 -10 12 -15 -1 -5 4 -10 12 -10 8 0 11 5 8 11 -5 8 -2
8 8 0 8 -6 35 -17 62 -25 26 -7 47 -17 47 -21 0 -4 12 -8 26 -8 15 0 23 -4 19
-11 -4 -6 -1 -10 6 -8 31 4 49 -2 70 -23 12 -13 18 -17 14 -9 -6 11 -4 13 9 8
10 -4 22 -7 27 -7 5 0 9 -7 9 -15 0 -8 5 -15 11 -15 5 0 7 5 3 11 -4 8 0 7 15
-1 13 -6 19 -16 14 -23 -5 -9 -3 -9 9 0 19 16 32 4 15 -15 -11 -13 -9 -14 10
-1 18 11 25 11 35 1 6 -6 20 -12 29 -12 9 0 22 -7 29 -15 7 -8 16 -12 21 -9 5
3 9 0 9 -6 0 -6 5 -8 10 -5 6 3 10 1 10 -4 0 -6 6 -10 13 -9 6 2 11 -3 9 -11
-3 -12 -1 -12 14 0 15 12 17 12 9 0 -6 -10 -4 -13 6 -9 9 3 26 -3 40 -13 13
-10 32 -19 41 -19 9 0 20 -9 23 -20 3 -11 11 -20 16 -20 6 0 7 6 4 13 -4 6 2
2 13 -11 12 -12 22 -17 24 -11 2 7 10 4 18 -7 12 -14 12 -16 1 -9 -9 5 -12 4
-8 -3 4 -5 15 -8 25 -6 9 3 27 -4 38 -15 12 -11 25 -17 28 -14 3 4 6 2 6 -3 0
-6 16 -16 35 -23 19 -7 35 -17 35 -22 0 -5 7 -9 15 -9 8 0 15 -3 15 -8 0 -4
14 -13 30 -20 17 -8 28 -18 25 -23 -4 -5 1 -6 9 -3 11 4 16 0 16 -12 0 -16 2
-17 10 -4 6 10 10 11 10 3 0 -7 6 -13 13 -13 7 0 22 -8 33 -17 10 -10 31 -24
47 -32 15 -8 27 -21 27 -29 0 -8 6 -12 14 -9 8 3 17 -1 20 -10 4 -9 9 -13 12
-10 6 6 24 -6 52 -35 9 -10 22 -18 29 -18 7 0 13 -5 13 -11 0 -5 5 -7 12 -3 7
4 8 3 4 -4 -4 -7 2 -16 16 -21 27 -10 76 -51 62 -51 -5 -1 5 -7 21 -14 40 -19
107 -81 97 -91 -4 -4 -2 -5 4 -2 14 8 57 -27 46 -37 -4 -4 -1 -6 7 -4 8 2 20
-8 28 -22 7 -15 13 -19 13 -10 1 11 6 9 20 -8 10 -13 23 -23 27 -23 4 0 7 -7
5 -16 -2 -8 1 -12 7 -8 6 3 11 1 11 -5 0 -6 5 -8 12 -4 8 5 9 2 5 -10 -4 -9
-3 -15 2 -12 4 3 23 -8 41 -24 19 -17 29 -30 24 -31 -5 0 1 -4 14 -9 12 -5 22
-17 22 -25 0 -9 4 -14 8 -11 10 6 83 -70 74 -78 -3 -3 1 -6 10 -6 8 0 23 -16
34 -35 10 -19 23 -35 27 -35 5 0 3 8 -4 18 -13 15 -12 16 4 3 9 -8 15 -16 13
-19 -3 -2 8 -17 24 -32 16 -15 26 -30 23 -34 -3 -3 -1 -6 6 -6 7 0 9 -5 6 -10
-4 -6 -3 -10 2 -9 26 4 35 -1 24 -15 -9 -11 -8 -14 6 -12 12 0 19 -7 21 -21 3
-21 13 -28 36 -24 5 1 6 -4 3 -11 -5 -14 17 -40 27 -31 3 4 6 1 6 -6 0 -7 11
-22 25 -33 15 -12 25 -30 25 -46 0 -21 2 -24 10 -12 8 12 10 11 10 -7 0 -13 6
-23 14 -23 10 0 13 -7 11 -21 -4 -18 -2 -19 12 -7 12 9 15 9 9 1 -4 -8 -2 -13
4 -13 7 0 9 -9 6 -22 -3 -13 -3 -18 0 -11 9 19 48 -22 40 -42 -3 -9 -2 -14 3
-11 5 3 14 -1 21 -9 7 -8 9 -15 4 -15 -5 0 -2 -5 7 -10 27 -16 91 -119 83
-133 -4 -6 -4 -9 1 -5 9 9 50 -40 41 -49 -3 -3 3 -13 14 -20 11 -8 18 -19 15
-24 -4 -5 -1 -9 5 -9 6 0 9 -4 6 -9 -3 -5 1 -12 10 -15 10 -4 13 -13 9 -28 -5
-18 -4 -20 4 -8 9 13 11 12 11 -3 0 -10 4 -16 8 -13 4 2 9 -4 10 -15 4 -42 6
-48 14 -43 5 3 5 11 2 17 -4 7 -3 8 2 4 5 -5 9 -12 9 -15 2 -19 17 -52 25 -52
4 0 6 -8 3 -19 -3 -10 0 -22 6 -25 7 -5 8 -1 4 11 -8 23 1 15 16 -14 10 -20 9
-22 -6 -17 -12 3 -11 1 3 -7 20 -10 54 -72 54 -98 0 -7 5 -9 12 -5 8 5 9 2 5
-9 -4 -10 -1 -17 5 -17 6 0 9 -3 5 -6 -3 -4 1 -13 9 -22 13 -12 13 -16 2 -23
-10 -7 -9 -9 5 -9 17 0 24 -24 10 -33 -5 -2 -2 -2 4 -1 14 4 38 -34 29 -44 -3
-3 1 -14 11 -24 9 -10 12 -18 7 -18 -5 0 -3 -4 4 -9 7 -4 14 -18 15 -29 1 -12
5 -22 10 -22 5 0 7 -9 4 -20 -3 -11 -1 -18 3 -15 10 6 41 -72 43 -108 1 -14 7
-25 12 -24 6 1 9 -6 7 -15 -2 -10 2 -18 8 -18 5 0 10 -11 10 -25 0 -14 5 -25
10 -25 6 0 10 -5 10 -11 0 -5 -4 -7 -10 -4 -5 3 -10 1 -10 -4 0 -6 7 -11 16
-11 13 0 14 -3 5 -14 -9 -11 -9 -16 0 -22 8 -4 9 -3 5 4 -4 7 -2 12 5 12 6 0
9 -8 6 -20 -3 -11 -1 -20 3 -20 5 0 7 -9 5 -19 -2 -11 3 -22 11 -25 9 -3 12
-11 9 -16 -4 -6 -1 -18 7 -27 7 -9 8 -14 2 -10 -6 3 -11 0 -11 -8 0 -8 3 -14
6 -13 19 2 24 -4 11 -12 -11 -7 -11 -10 -2 -10 7 0 10 -4 7 -10 -3 -5 -2 -10
3 -10 5 0 12 -11 14 -25 3 -16 1 -22 -6 -19 -6 3 -2 -2 8 -10 11 -9 17 -16 14
-16 -4 0 -3 -13 2 -29 6 -21 5 -31 -3 -35 -7 -2 -5 -5 4 -5 9 -1 16 -7 16 -13
0 -7 4 -22 9 -32 6 -15 4 -17 -7 -11 -11 7 -12 6 -2 -7 7 -8 10 -18 6 -21 -3
-4 -1 -7 6 -7 8 0 11 -7 7 -15 -3 -8 -1 -15 4 -15 5 0 7 -9 5 -20 -2 -11 1
-20 7 -20 7 0 6 -5 -2 -15 -10 -12 -9 -16 4 -21 15 -6 15 -7 0 -19 -14 -9 -14
-14 -4 -20 9 -5 11 -4 6 3 -4 7 -2 12 5 12 6 0 9 -8 6 -20 -3 -11 0 -20 5 -20
6 0 4 -8 -3 -17 -10 -11 -10 -14 -1 -9 12 7 14 -1 15 -51 0 -13 3 -23 6 -23 4
0 7 -9 8 -20 1 -13 -2 -18 -10 -13 -7 3 -4 -3 6 -14 14 -16 15 -23 6 -29 -9
-5 -7 -11 6 -21 14 -9 15 -13 4 -13 -12 0 -12 -2 0 -9 8 -5 11 -16 8 -24 -3
-8 0 -20 6 -26 8 -8 6 -11 -8 -11 -17 -1 -18 -2 -4 -10 10 -6 15 -20 14 -35
-2 -14 0 -25 5 -25 10 0 8 -20 -4 -39 -6 -10 -5 -12 2 -7 16 10 15 -7 0 -23
-10 -11 -10 -13 0 -7 7 4 12 2 13 -6 5 -57 4 -75 -4 -86 -7 -9 -6 -11 4 -7 11
4 14 -5 14 -39 0 -25 -4 -48 -9 -53 -5 -5 -6 -2 -1 7 7 12 6 13 -6 3 -20 -16
-122 -16 -113 0 5 8 3 8 -7 0 -7 -7 -23 -13 -36 -13 -13 0 -23 6 -23 13 0 9
-2 9 -8 0 -10 -16 -115 -16 -106 0 5 8 3 8 -7 0 -18 -17 -63 -17 -53 0 6 10 4
10 -7 0 -7 -7 -23 -13 -36 -13 -13 0 -23 6 -23 13 0 9 -2 9 -8 0 -10 -16 -115
-16 -106 0 5 8 3 8 -7 0 -7 -7 -24 -13 -37 -13 -16 0 -21 4 -16 13 6 10 4 10
-7 0 -7 -7 -23 -13 -36 -13 -13 0 -23 6 -23 13 0 9 -2 9 -8 0 -10 -16 -115
-16 -105 0 4 7 -1 6 -11 -2 -14 -12 -21 -13 -38 -2 -11 7 -17 8 -14 2 9 -14
-85 -12 -103 3 -11 8 -13 8 -8 0 4 -7 -2 -14 -13 -17 -11 -3 -23 0 -27 5 -4 7
-1 8 7 3 9 -5 11 -4 6 4 -6 9 -11 9 -22 0 -7 -6 -21 -9 -29 -5 -10 3 -16 -1
-17 -12 -2 -32 -4 -37 -12 -51 -5 -8 -3 -16 5 -22 10 -6 11 -9 2 -9 -15 0 -13
-21 2 -32 6 -5 6 -8 -1 -8 -6 0 -11 -7 -11 -15 0 -8 5 -15 11 -15 5 0 1 -7
-10 -16 -10 -8 -14 -13 -8 -10 7 3 14 -3 17 -15 5 -17 3 -18 -10 -7 -15 12
-15 11 -3 -12 8 -14 14 -33 15 -42 1 -15 -1 -16 -14 -5 -12 9 -11 5 3 -17 18
-28 18 -29 0 -22 -17 7 -17 6 0 -13 17 -18 17 -20 -1 -30 -17 -10 -17 -10 2
-11 15 0 17 -2 6 -9 -10 -7 -11 -10 -1 -16 10 -6 9 -11 -5 -22 -18 -13 -18
-13 1 -14 11 0 14 -3 6 -6 -9 -4 -10 -8 -2 -18 8 -10 8 -15 -1 -20 -8 -6 -7
-10 2 -16 11 -7 11 -9 1 -9 -10 0 -10 -5 -1 -21 7 -13 7 -19 1 -15 -6 4 -10
-2 -9 -14 1 -11 5 -20 9 -20 5 0 4 -9 -2 -20 -8 -15 -8 -20 2 -21 11 0 11 -2
0 -6 -10 -4 -10 -8 0 -21 10 -12 10 -14 1 -8 -9 5 -11 2 -7 -7 6 -16 77 -27
97 -15 6 4 23 0 36 -8 13 -9 21 -12 17 -6 -3 6 9 12 29 14 26 3 35 0 36 -12 0
-10 2 -11 6 -2 2 6 11 12 19 12 8 0 14 -6 15 -12 0 -7 4 -4 9 7 5 11 9 15 9 9
1 -10 52 -11 69 0 5 3 18 -1 28 -8 10 -8 23 -11 29 -7 5 5 20 11 32 14 17 4
23 1 24 -11 0 -11 2 -12 6 -4 2 6 11 12 19 12 8 0 14 -6 15 -12 0 -7 4 -4 9 7
5 11 9 15 9 9 1 -10 58 -11 68 0 4 3 17 -1 31 -10 13 -9 22 -12 18 -6 -3 6 9
12 29 14 26 3 35 0 36 -12 0 -10 2 -11 6 -2 6 16 33 16 34 0 0 -7 4 -4 9 7 5
11 9 15 9 9 1 -10 52 -11 69 0 5 3 18 -1 28 -8 10 -8 23 -11 29 -7 5 5 20 11
33 14 16 4 22 1 22 -11 0 -15 2 -15 10 -2 8 13 13 13 31 2 11 -8 18 -9 14 -3
-4 7 8 11 34 11 23 0 41 -2 41 -4 0 -2 3 -13 6 -23 5 -15 4 -15 -5 -3 -7 9
-11 10 -11 3 0 -6 5 -15 10 -18 6 -4 7 -13 2 -23 -5 -9 -8 -30 -7 -47 1 -16
-4 -33 -9 -37 -7 -5 -5 -8 4 -8 13 0 13 -1 0 -10 -13 -9 -13 -10 0 -10 13 0
13 -2 1 -9 -8 -5 -16 -17 -17 -25 -1 -9 2 -14 7 -10 5 3 9 0 9 -5 0 -6 -5 -11
-12 -11 -9 0 -9 -3 -1 -11 14 -14 5 -42 -10 -32 -6 4 -7 1 -1 -8 15 -25 14
-41 -4 -34 -14 5 -15 4 -4 -6 6 -7 12 -21 12 -31 0 -10 -6 -18 -12 -18 -10 0
-9 -3 1 -9 11 -7 10 -11 -5 -20 -11 -6 -13 -11 -6 -11 13 0 17 -30 3 -30 -4 0
-6 -12 -3 -26 4 -20 2 -25 -8 -19 -10 6 -11 4 -4 -6 12 -19 5 -51 -14 -65 -11
-8 -12 -13 -3 -18 9 -6 9 -11 -1 -24 -11 -13 -11 -14 2 -7 12 7 13 6 4 -6 -6
-8 -10 -22 -8 -32 2 -14 -2 -17 -14 -12 -14 5 -15 4 -4 -6 6 -7 12 -17 12 -22
0 -4 -6 -5 -12 -1 -10 6 -10 5 -1 -8 7 -8 10 -18 6 -22 -8 -8 -17 -48 -22 -94
0 -7 -5 -11 -9 -8 -4 3 -7 -9 -6 -25 1 -21 -2 -29 -10 -26 -7 3 -13 -1 -13 -9
0 -7 4 -11 9 -8 4 3 8 -2 8 -11 0 -12 -5 -15 -17 -10 -15 5 -16 4 -5 -6 15
-16 16 -33 1 -23 -8 4 -9 0 -4 -15 4 -12 2 -21 -4 -21 -6 0 -8 -7 -5 -15 4 -8
1 -21 -5 -29 -6 -7 -8 -16 -4 -19 3 -4 1 -13 -6 -21 -6 -8 -14 -24 -16 -37 -3
-12 -10 -26 -17 -31 -10 -6 -10 -8 1 -8 11 0 11 -3 1 -15 -7 -8 -9 -15 -4 -15
4 0 -1 -7 -12 -16 -10 -8 -12 -12 -4 -8 8 4 4 -6 -10 -22 -14 -15 -18 -23 -9
-16 13 9 16 9 16 -3 0 -8 -4 -15 -9 -15 -5 0 -7 -4 -3 -9 3 -5 1 -12 -5 -16
-5 -3 -10 -15 -10 -26 0 -10 -5 -19 -11 -19 -6 0 -9 -7 -5 -15 3 -10 -1 -15
-12 -15 -13 0 -14 -2 -3 -9 9 -6 10 -11 2 -15 -6 -4 -9 -12 -6 -17 4 -5 -2 -9
-12 -10 -10 0 -13 -3 -6 -6 10 -3 10 -10 2 -24 -5 -11 -15 -17 -22 -13 -9 5
-9 4 0 -6 13 -14 -3 -63 -18 -54 -5 3 -9 0 -9 -5 0 -6 5 -11 12 -11 6 0 3 -7
-8 -16 -10 -8 -14 -13 -7 -10 8 5 8 0 0 -18 -7 -13 -15 -22 -20 -19 -5 3 -7
-1 -5 -8 4 -20 -23 -80 -33 -73 -5 3 -6 -2 -3 -10 3 -9 2 -16 -3 -16 -5 0 -10
-10 -10 -22 -1 -13 -7 -24 -13 -26 -5 -2 -10 -13 -10 -23 0 -11 -4 -17 -10
-14 -6 3 -7 -1 -4 -9 3 -9 1 -16 -6 -16 -6 0 -8 -4 -5 -10 6 -9 -8 -14 -28
-11 -5 1 -6 -3 -2 -9 3 -6 12 -7 18 -3 8 5 8 2 0 -9 -7 -8 -10 -17 -7 -20 3
-3 0 -9 -7 -14 -8 -5 -10 -3 -4 6 5 8 4 11 -3 6 -6 -3 -14 -21 -17 -39 -4 -17
-17 -40 -28 -50 -12 -10 -15 -16 -7 -12 8 4 4 -3 -9 -14 -13 -12 -18 -21 -11
-21 7 0 4 -7 -7 -17 -10 -10 -12 -14 -3 -8 11 7 11 5 -3 -11 -9 -11 -14 -24
-10 -29 5 -4 2 -5 -4 -1 -8 4 -13 2 -13 -5 0 -8 -5 -8 -17 2 -15 11 -15 10 1
-8 17 -20 17 -23 2 -29 -9 -3 -16 -13 -16 -20 0 -8 -7 -17 -15 -20 -8 -4 -12
-10 -9 -15 3 -5 0 -9 -6 -9 -6 0 -8 -5 -4 -12 5 -8 0 -9 -17 -5 -23 6 -23 5
-5 -8 18 -13 15 -20 -7 -16 -4 0 -6 -5 -5 -11 2 -7 -3 -12 -10 -10 -8 1 -11
-2 -8 -7 10 -16 -25 -73 -41 -66 -14 5 -14 3 -2 -12 12 -15 12 -16 -5 -10 -15
6 -16 5 -8 -5 11 -13 -6 -48 -23 -48 -5 0 0 10 11 23 l19 22 -22 -19 c-13 -10
-20 -22 -18 -27 3 -4 -1 -13 -8 -21 -7 -7 -16 -21 -20 -31 -4 -10 -11 -15 -17
-12 -5 3 -7 0 -5 -8 6 -14 -32 -64 -46 -60 -4 2 -5 -5 -2 -14 4 -11 3 -14 -5
-9 -7 4 -12 1 -12 -9 0 -9 -11 -26 -25 -39 -14 -13 -25 -29 -25 -35 0 -6 -7
-14 -15 -17 -8 -4 -15 -12 -15 -20 0 -8 -6 -11 -17 -7 -13 5 -15 2 -10 -11 4
-10 1 -19 -8 -22 -8 -4 -12 -10 -9 -15 3 -5 0 -8 -8 -7 -7 2 -12 -3 -10 -11 2
-9 -3 -11 -13 -7 -9 3 -14 2 -11 -2 7 -11 -29 -64 -37 -55 -4 3 -7 1 -7 -6 0
-7 -5 -9 -12 -5 -8 5 -9 2 -5 -9 6 -15 -3 -22 -25 -18 -4 0 -4 -7 -1 -16 5
-13 2 -15 -12 -10 -16 7 -16 5 -4 -10 8 -9 9 -14 3 -10 -7 4 -15 0 -18 -9 -3
-8 -11 -12 -16 -9 -6 4 -9 3 -8 -2 4 -13 -39 -56 -50 -50 -5 4 -9 0 -9 -8 0
-8 5 -11 10 -8 6 3 7 1 3 -5 -4 -7 -13 -12 -21 -12 -7 0 -17 -9 -20 -20 -4
-11 -11 -18 -16 -15 -5 4 -9 -2 -9 -12 0 -12 -3 -14 -8 -6 -5 8 -12 2 -21 -18
-7 -16 -17 -29 -22 -29 -6 0 -7 6 -3 12 4 7 4 10 0 6 -4 -3 -8 -10 -9 -14 -5
-21 -47 -55 -59 -48 -11 6 -11 5 0 -8 10 -13 10 -18 1 -24 -8 -5 -10 -3 -5 7
5 8 -4 -1 -19 -19 -20 -25 -32 -31 -49 -27 -17 5 -18 4 -6 -4 11 -8 12 -11 2
-11 -7 0 -10 -4 -7 -10 3 -5 0 -7 -8 -4 -8 3 -18 0 -23 -7 -4 -8 -3 -10 4 -5
7 4 12 2 12 -5 0 -6 -8 -9 -20 -6 -11 3 -18 1 -14 -4 3 -5 0 -9 -6 -9 -6 0 -8
-5 -4 -12 5 -7 0 -9 -14 -6 -13 4 -19 2 -16 -6 6 -15 -38 -54 -54 -48 -7 2
-11 -2 -10 -10 2 -8 -6 -13 -18 -12 -13 0 -20 -5 -18 -11 6 -14 -22 -39 -34
-31 -5 3 -17 -3 -27 -14 -10 -11 -21 -17 -26 -15 -4 3 -11 0 -15 -6 -4 -8 -3
-9 4 -5 29 18 8 -15 -25 -41 -53 -41 -68 -49 -58 -32 4 8 -4 1 -19 -15 -14
-16 -26 -25 -26 -21 0 5 -7 0 -15 -11 -8 -10 -15 -16 -15 -12 0 4 -11 -4 -24
-17 -15 -14 -32 -23 -45 -20 -13 2 -18 -1 -15 -10 3 -7 0 -16 -7 -21 -8 -5
-10 -3 -5 7 4 8 0 5 -9 -6 -9 -11 -23 -19 -32 -17 -8 2 -13 0 -10 -5 3 -5 -8
-16 -24 -25 -20 -12 -29 -13 -30 -5 0 7 -4 2 -9 -10 -5 -13 -16 -23 -25 -23
-8 0 -15 -5 -15 -11 0 -5 -4 -7 -10 -4 -5 3 -10 1 -10 -6 0 -8 -4 -8 -15 1
-13 11 -14 10 -9 -3 3 -10 -2 -20 -16 -27 -15 -8 -20 -8 -16 -1 4 6 2 11 -3
11 -6 0 -11 -7 -11 -15 0 -8 -5 -15 -11 -15 -6 0 -18 -7 -26 -16 -13 -13 -17
-13 -24 -2 -7 10 -9 9 -9 -4 0 -16 -11 -23 -32 -19 -5 0 -8 -4 -8 -10 0 -5 -4
-8 -9 -5 -5 3 -12 -1 -15 -10 -4 -9 -9 -14 -13 -11 -3 4 -19 -3 -35 -15 -25
-17 -32 -18 -39 -7 -7 11 -9 10 -9 -5 0 -12 -5 -16 -15 -12 -9 3 -15 0 -15
-10 0 -8 -4 -13 -9 -9 -5 3 -13 1 -16 -5 -5 -8 -11 -7 -21 1 -12 10 -13 9 -7
-6 5 -14 3 -17 -10 -12 -11 4 -17 1 -17 -8 0 -8 -8 -12 -20 -10 -13 3 -20 -2
-20 -12 0 -13 -2 -14 -17 -2 -9 8 -14 9 -10 3 7 -11 -19 -29 -36 -25 -5 1 -20
-8 -34 -19 -20 -15 -29 -17 -40 -9 -11 10 -12 8 -7 -7 7 -18 6 -18 -17 1 -18
15 -20 16 -10 2 12 -15 9 -21 -11 -18 -5 0 -8 -3 -8 -9 0 -5 -9 -10 -21 -10
-13 0 -18 4 -13 13 4 6 5 10 1 7 -3 -3 -5 -9 -6 -14 0 -15 -45 -33 -53 -22 -5
7 -8 4 -8 -7 0 -10 -5 -15 -10 -12 -6 4 -17 1 -25 -5 -8 -6 -19 -9 -25 -5 -5
3 -10 1 -10 -5 0 -6 -4 -9 -9 -5 -5 3 -13 0 -17 -6 -4 -8 -9 -7 -15 2 -7 11
-9 10 -9 -4 0 -10 -4 -16 -9 -12 -5 3 -13 0 -16 -6 -4 -5 -13 -8 -21 -5 -8 3
-14 1 -14 -5 0 -6 -4 -8 -9 -4 -5 3 -13 0 -16 -6 -4 -5 -13 -8 -21 -5 -8 3
-14 1 -14 -4 0 -5 -7 -6 -17 -3 -10 4 -14 2 -10 -4 3 -5 1 -10 -6 -10 -46 -3
-67 -9 -67 -17 0 -5 -3 -6 -7 -3 -3 4 -17 0 -31 -9 -13 -9 -21 -11 -18 -5 9
14 -6 15 -20 1 -5 -5 -19 -11 -31 -13 -13 -2 -25 -6 -29 -9 -3 -4 -12 -4 -20
-1 -8 3 -14 0 -14 -6 0 -9 -5 -9 -21 0 -12 6 -19 7 -15 1 3 -5 -1 -13 -10 -16
-10 -4 -13 -2 -8 7 6 8 3 8 -9 -1 -9 -8 -21 -11 -27 -7 -5 3 -10 2 -10 -4 0
-5 -9 -8 -20 -6 -11 2 -20 -1 -20 -7 0 -6 -7 -5 -17 3 -11 10 -14 10 -9 2 5
-9 1 -13 -13 -13 -10 0 -21 3 -24 8 -2 4 -3 2 -1 -5 1 -6 -6 -13 -17 -16 -13
-3 -17 -1 -12 6 4 7 -1 6 -10 -2 -9 -7 -17 -10 -17 -6 0 4 -6 3 -13 -3 -7 -6
-25 -9 -40 -8 -15 2 -30 -1 -33 -5 -3 -5 -15 -9 -27 -9 -54 0 -87 -4 -87 -11
0 -4 -16 -6 -35 -5 -19 1 -35 -2 -35 -7 0 -5 -16 -6 -35 -3 -24 4 -35 2 -35
-7 0 -8 -4 -7 -10 3 -6 10 -10 11 -10 3 0 -7 -9 -13 -20 -13 -11 0 -20 6 -21
13 0 9 -2 9 -6 0 -6 -17 -65 -17 -83 0 -12 10 -12 9 -1 -5 13 -17 4 -19 -76
-9 -8 1 -11 25 -10 75 1 49 5 73 11 68 6 -3 5 1 -1 9 -16 19 -14 91 1 82 6 -3
5 0 -1 8 -7 7 -13 21 -13 31 0 10 6 18 13 18 8 0 9 3 1 8 -15 9 -15 94 0 85 6
-4 6 0 -1 8 -16 19 -14 91 1 82 6 -3 5 0 -1 8 -16 16 -17 33 -2 24 6 -4 5 3
-3 15 -11 19 -11 23 1 28 11 4 11 6 0 13 -12 8 -11 11 1 19 8 5 10 10 4 10 -6
0 -11 21 -11 50 -1 35 3 48 11 43 6 -3 6 -1 -1 8 -7 7 -13 21 -13 31 0 10 6
18 13 18 8 0 8 3 1 8 -15 10 -16 104 -1 96 8 -5 8 -2 0 7 -17 17 -17 49 0 49
8 0 8 3 1 8 -13 9 -16 105 -3 97 5 -3 1 7 -8 24 -12 20 -21 27 -29 20 -6 -5
-14 -6 -18 -2 -10 11 -56 11 -62 1 -3 -4 -10 -5 -17 -1 -6 4 -32 7 -57 8 -25
1 -52 5 -60 10 -8 5 -11 4 -7 -2 4 -6 0 -13 -8 -17 -8 -3 -17 -1 -20 4 -6 10
-45 8 -63 -4 -16 -10 -34 2 -25 17 4 7 0 6 -10 -2 -9 -7 -17 -11 -17 -7 0 3
-11 1 -25 -4 -13 -5 -27 -5 -30 -1 -3 5 -15 7 -27 3 -16 -4 -19 -2 -13 9 5 9
1 8 -10 -3 -17 -16 -20 -16 -44 0 -18 13 -23 13 -16 3 6 -11 4 -13 -8 -8 -9 3
-19 2 -23 -4 -3 -6 -11 -6 -17 -1 -11 7 -29 8 -42 2 -3 -1 -9 -3 -14 -4 -5 0
-13 -5 -18 -10 -4 -5 -3 -6 4 -2 6 3 14 2 18 -4 3 -5 2 -10 -3 -10 -6 0 -13
-7 -16 -16 -5 -13 -3 -14 6 -6 10 8 13 5 13 -14 0 -13 -3 -24 -6 -24 -4 0 -10
-7 -13 -16 -5 -13 -3 -14 6 -6 10 8 13 5 13 -14 0 -15 -5 -22 -12 -20 -7 3
-10 -1 -6 -9 3 -8 8 -13 12 -10 14 8 6 -40 -9 -53 -13 -12 -13 -13 0 -9 10 3
15 -3 15 -19 0 -13 -3 -24 -6 -24 -4 0 -10 -7 -13 -16 -5 -13 -4 -14 7 -6 20
17 17 -29 -3 -46 -13 -12 -13 -13 0 -9 10 3 15 -3 15 -19 0 -13 -3 -24 -6 -24
-4 0 -10 -7 -13 -16 -5 -13 -3 -14 6 -6 10 8 13 5 13 -14 0 -13 -6 -24 -13
-24 -7 0 -10 -5 -7 -10 4 -6 12 -7 18 -3 7 4 6 0 -2 -10 -11 -14 -11 -17 0
-18 11 0 11 -2 1 -6 -10 -4 -10 -8 -1 -19 9 -11 8 -14 -7 -14 -14 0 -16 -2 -6
-9 18 -11 23 -94 6 -87 -8 3 -11 -1 -7 -9 3 -8 8 -13 12 -10 14 8 6 -40 -9
-53 -13 -12 -13 -13 0 -9 10 3 15 -3 15 -19 0 -13 -3 -24 -6 -24 -4 0 -10 -7
-13 -16 -5 -13 -4 -14 7 -6 20 17 17 -29 -3 -46 -13 -12 -13 -13 0 -9 10 3 15
-3 15 -19 0 -13 -3 -24 -6 -24 -4 0 -10 -7 -13 -16 -5 -13 -3 -14 6 -6 10 8
13 5 13 -14 0 -15 -5 -22 -12 -20 -7 3 -10 -1 -6 -9 3 -8 8 -13 12 -11 3 2 6
-7 6 -20 0 -13 -6 -24 -13 -24 -7 0 -10 -5 -7 -10 4 -6 10 -8 15 -5 4 3 6 -4
3 -15 -3 -11 -10 -17 -17 -13 -6 4 -5 0 2 -9 12 -15 8 -16 -35 -14 -26 1 -54
6 -62 10 -9 6 -12 5 -8 -1 3 -5 -1 -10 -9 -10 -9 0 -13 6 -9 15 5 13 3 13 -11
2 -13 -11 -19 -11 -36 -1 -11 7 -17 8 -13 2 3 -6 1 -11 -4 -11 -6 0 -11 6 -11
13 0 9 -3 8 -9 -2 -7 -11 -10 -10 -18 4 -7 12 -12 14 -17 6 -5 -8 -13 -8 -28
0 -16 9 -19 8 -12 -3 6 -9 0 -8 -17 4 -17 11 -31 13 -40 7 -21 -13 -29 -11
-30 9 0 10 -3 12 -6 5 -3 -10 -10 -10 -25 -2 -15 8 -19 8 -14 0 4 -6 3 -11 -3
-11 -5 0 -15 8 -20 18 -6 9 -11 11 -11 5 0 -7 -5 -13 -11 -13 -5 0 -7 5 -3 11
4 8 1 8 -12 1 -23 -11 -47 -5 -37 11 4 7 1 7 -9 -1 -10 -8 -18 -9 -22 -3 -4 6
-14 7 -23 4 -10 -4 -14 -2 -10 4 4 7 -4 11 -21 10 -59 -1 -73 3 -66 16 6 9 5
9 -8 0 -8 -7 -18 -10 -22 -6 -3 4 -12 8 -19 9 -7 2 -23 5 -37 9 -14 3 -38 8
-55 11 -16 3 -33 10 -37 17 -6 9 -8 8 -8 -3 0 -12 -2 -12 -9 -2 -4 7 -22 14
-40 14 -17 1 -36 7 -42 15 -6 7 -17 13 -23 13 -6 0 -4 -5 4 -10 8 -5 10 -10 4
-10 -6 0 -17 7 -24 15 -7 8 -20 14 -29 13 -10 -2 -15 3 -13 12 3 12 1 13 -9 2
-15 -14 -33 -16 -25 -3 4 5 -4 7 -16 3 -14 -3 -19 -1 -14 6 3 6 1 14 -5 18 -8
4 -9 3 -5 -4 5 -8 0 -12 -13 -12 -12 0 -21 5 -21 10 0 6 -13 10 -30 10 -16 0
-30 5 -30 12 0 6 -3 8 -7 5 -3 -4 -12 1 -20 11 -8 9 -11 11 -7 3 5 -10 1 -11
-17 -6 -13 4 -27 12 -30 17 -3 5 -10 8 -15 7 -5 -1 -17 1 -26 4 -10 4 -26 10
-35 14 -10 3 -20 7 -23 8 -3 1 -18 7 -33 13 -16 7 -33 12 -38 12 -5 0 -9 5 -9
11 0 5 -5 7 -10 4 -6 -3 -10 -2 -10 4 0 6 -7 7 -17 4 -10 -4 -14 -2 -10 4 4 6
0 14 -9 17 -8 3 -12 2 -9 -4 3 -6 -1 -7 -9 -4 -9 3 -14 10 -11 15 3 4 -4 6
-15 4 -13 -3 -20 1 -20 12 0 13 -3 13 -16 3 -13 -11 -16 -10 -21 9 -4 16 -8
19 -14 10 -6 -10 -11 -10 -23 0 -9 7 -14 17 -11 20 4 7 -10 11 -48 12 -24 0
-58 30 -50 43 4 6 -1 5 -10 -2 -13 -12 -19 -11 -37 1 -11 7 -17 17 -12 22 4 4
-4 4 -17 0 -16 -5 -21 -4 -17 4 5 7 -1 11 -14 11 -12 0 -18 5 -15 10 3 5 -3
10 -15 10 -12 0 -18 4 -15 10 3 5 0 7 -8 4 -8 -3 -21 2 -30 10 -8 8 -17 12
-21 9 -3 -4 -6 -1 -6 6 0 7 -4 9 -10 6 -5 -3 -10 -2 -10 3 0 6 -11 13 -24 16
-14 3 -32 14 -42 23 -9 10 -24 18 -32 19 -8 2 -18 7 -21 12 -3 4 -14 11 -24
15 -11 4 -15 12 -11 18 5 8 3 9 -6 4 -8 -5 -18 -2 -26 9 -7 10 -15 17 -18 17
-22 -3 -27 1 -23 14 4 8 2 17 -4 20 -5 4 -8 3 -7 -2 2 -4 -1 -8 -7 -8 -5 0 -9
4 -7 10 2 5 0 7 -4 3 -9 -10 -64 23 -64 38 0 7 -7 15 -16 18 -12 5 -14 3 -8
-7 5 -7 1 -4 -8 6 -10 11 -18 16 -18 13 0 -4 -6 -1 -14 6 -8 7 -12 16 -10 19
2 4 -4 6 -14 5 -9 0 -16 5 -14 12 1 7 -5 12 -15 10 -10 -2 -17 2 -15 10 1 6
-1 11 -5 11 -20 -3 -34 2 -28 11 3 6 -3 10 -14 10 -11 0 -26 8 -33 18 -7 9
-25 23 -40 31 -21 11 -25 18 -17 27 7 8 6 14 -2 20 -8 4 -9 3 -5 -4 4 -7 1
-12 -8 -12 -9 0 -21 9 -28 20 -7 11 -17 20 -23 20 -14 1 -85 66 -85 78 0 6 -4
14 -10 17 -6 4 -7 -1 -4 -12 3 -10 -3 -4 -15 12 -11 17 -21 26 -21 21 0 -5 -8
1 -19 12 -10 12 -22 18 -26 14 -5 -4 -5 1 -2 10 4 10 2 17 -5 15 -6 -1 -13 4
-16 12 -3 9 0 11 8 6 8 -5 11 -4 6 3 -4 6 -13 9 -20 6 -7 -3 -37 18 -67 45
-30 28 -58 51 -64 51 -5 0 -3 5 5 10 13 8 12 10 -3 10 -10 0 -15 5 -12 10 4 6
3 10 -2 9 -22 -4 -33 3 -33 21 0 11 -3 19 -7 19 -5 -1 -15 -1 -23 0 -13 1 -13
2 0 11 13 8 13 10 1 10 -20 0 -83 71 -77 86 3 8 0 16 -6 20 -6 4 -8 3 -4 -4 3
-6 3 -13 -2 -16 -4 -2 -14 4 -21 16 -10 16 -10 19 1 12 7 -4 10 -4 6 0 -3 4
-10 8 -15 8 -12 0 -33 19 -33 30 0 5 5 6 12 2 7 -4 8 -3 4 4 -4 6 -13 9 -21 5
-8 -3 -15 -1 -15 3 0 5 -16 26 -35 48 -19 21 -33 42 -30 46 3 5 0 12 -6 16 -8
5 -9 3 -4 -7 8 -12 6 -12 -8 0 -9 7 -17 19 -17 27 0 7 -5 16 -12 20 -7 5 -8 3
-3 -6 5 -9 4 -11 -4 -6 -9 6 -9 11 -1 21 8 10 8 15 -1 21 -8 4 -9 3 -5 -4 4
-7 3 -12 -2 -12 -12 0 -24 29 -17 40 3 4 -3 7 -13 6 -10 0 -16 6 -16 16 1 10
-2 16 -6 13 -11 -7 -43 32 -36 43 3 5 -5 18 -19 28 -13 10 -22 21 -19 26 3 4
-2 8 -10 8 -9 0 -16 7 -16 15 0 8 -6 15 -12 15 -9 0 -8 4 2 10 8 5 10 10 4 10
-5 0 -19 7 -30 16 -10 8 -14 13 -8 10 6 -3 11 1 11 8 0 8 -5 12 -11 10 -6 -2
-20 9 -31 24 -18 25 -18 26 0 12 18 -15 18 -14 2 11 -10 14 -14 29 -10 34 5 4
2 5 -5 1 -7 -4 -9 -12 -6 -18 4 -7 2 -8 -5 -4 -6 4 -9 12 -6 17 4 5 1 9 -5 9
-6 0 -8 4 -5 10 3 5 -2 10 -12 11 -12 0 -13 2 -5 6 10 4 8 9 -7 20 -12 8 -21
20 -21 27 0 7 -9 22 -20 34 -13 14 -16 22 -8 22 7 0 2 7 -10 16 -12 8 -22 24
-22 35 0 11 -4 18 -9 15 -5 -3 -16 11 -24 32 -8 21 -22 44 -31 51 -13 11 -14
17 -4 28 9 11 8 13 -3 11 -8 -2 -13 3 -11 10 1 6 -2 12 -6 12 -4 0 -16 14 -26
31 -11 18 -14 29 -8 25 8 -5 10 -2 6 8 -3 9 -9 14 -13 11 -4 -2 -13 12 -20 31
-7 18 -17 34 -22 34 -5 0 -9 9 -9 19 0 11 -5 23 -11 26 -6 4 -8 13 -5 20 2 7
-2 16 -11 19 -8 4 -13 13 -9 21 3 8 2 15 -3 15 -4 0 -13 12 -19 26 -10 20 -10
24 0 19 7 -4 5 0 -6 9 -12 10 -17 23 -14 41 4 20 3 23 -8 14 -11 -9 -14 -7
-14 8 0 10 -7 29 -16 41 -8 12 -10 22 -5 22 6 0 11 5 11 11 0 5 -4 8 -9 4 -12
-7 -21 7 -23 39 -1 14 -9 28 -17 31 -13 5 -13 7 -1 15 12 8 12 10 -3 16 -13 5
-15 9 -6 20 8 10 7 17 -4 28 -8 8 -18 12 -23 8 -5 -4 -2 1 6 11 11 16 11 18
-1 15 -9 -2 -13 4 -11 19 2 13 -2 23 -7 23 -6 0 -11 9 -11 20 0 11 -4 20 -10
20 -5 0 -10 5 -10 11 0 5 4 8 8 5 5 -3 9 1 9 9 0 8 -5 13 -11 12 -5 -1 -11 3
-11 8 -1 6 -7 22 -13 36 -12 30 -27 100 -24 111 1 5 -3 8 -9 8 -6 0 -9 9 -6
20 3 11 1 20 -5 20 -6 0 -8 11 -6 25 3 13 1 22 -3 19 -8 -4 -14 25 -10 49 0 4
-4 7 -10 7 -8 0 -7 5 1 16 8 8 9 14 4 13 -23 -4 -26 2 -8 16 13 11 14 14 4 13
-9 -2 -14 4 -14 15 1 9 -3 17 -8 17 -6 0 -8 7 -4 15 3 8 1 15 -4 15 -6 0 -10
5 -10 11 0 5 5 7 12 3 7 -5 8 -3 2 7 -5 8 -9 17 -10 22 -1 4 -2 8 -4 10 -1 1
-3 9 -5 17 -2 8 -7 24 -11 34 -5 14 -4 17 5 11 10 -6 11 -3 2 14 -7 12 -9 27
-5 33 4 6 3 8 -3 5 -6 -4 -14 0 -17 9 -3 8 -2 12 4 9 6 -3 10 -1 10 4 0 6 -4
11 -9 11 -4 0 -7 11 -6 25 2 14 -1 25 -6 25 -5 0 -9 7 -9 16 0 8 5 12 10 9 6
-4 2 9 -9 29 -19 33 -19 36 -3 45 11 7 12 11 4 11 -7 0 -10 5 -7 10 3 6 2 10
-4 10 -11 0 -9 19 3 39 6 9 5 12 -1 8 -6 -4 -13 2 -16 13 -3 12 -1 18 5 14 7
-4 7 0 0 12 -5 11 -8 27 -7 37 2 9 -2 17 -8 17 -7 0 -5 5 3 10 10 6 11 10 3
10 -7 0 -13 7 -13 16 0 8 5 12 10 9 6 -3 10 -1 10 4 0 6 -4 11 -10 11 -14 0
-12 27 3 33 6 3 3 6 -8 6 -17 1 -17 3 -5 11 8 5 10 10 3 10 -6 0 -10 11 -9 24
2 14 0 30 -5 37 -4 7 0 19 9 28 11 12 16 13 20 3 2 -6 8 -12 13 -12 6 0 8 4 5
9 -3 5 10 11 29 13 27 3 35 0 35 -12 0 -9 3 -11 8 -4 4 6 17 13 30 17 20 5 21
3 10 -10 -12 -15 -11 -15 10 -4 13 7 29 10 36 8 7 -3 19 -1 27 4 9 5 22 3 36
-6 12 -8 24 -11 27 -6 3 5 17 11 31 13 18 4 25 1 26 -11 0 -10 2 -12 6 -3 2 6
11 12 19 12 8 0 14 -6 15 -12 0 -7 4 -4 9 7 5 11 9 15 9 9 1 -10 58 -11 68 0
4 3 17 -1 31 -10 13 -9 22 -12 18 -6 -3 6 9 12 29 14 26 3 35 0 36 -12 0 -10
2 -11 6 -2 6 16 33 16 34 0 0 -7 4 -4 9 7 5 11 9 15 9 9 1 -10 52 -11 69 0 5
3 18 -1 28 -8 10 -8 23 -11 29 -7 5 5 20 11 32 14 17 4 23 1 24 -11 0 -11 2
-12 6 -4 2 6 11 12 19 12 8 0 14 -6 15 -12 0 -7 4 -4 9 7 5 11 9 15 9 9 1 -10
58 -11 68 0 4 3 17 -1 31 -10 13 -9 22 -12 18 -6 -3 6 9 12 29 14 26 3 35 0
36 -12 0 -10 2 -11 6 -2 2 6 11 12 19 12 8 0 14 -6 15 -12 0 -7 4 -4 9 7 5 11
9 15 9 10 1 -6 25 -9 54 -9 29 1 55 -3 59 -10 5 -7 8 -3 8 9 1 20 1 20 15 1
15 -20 15 -20 16 0 0 10 3 14 5 8 4 -10 61 -11 71 0 4 3 17 -1 31 -10 13 -9
22 -12 18 -6 -3 6 9 12 29 14 26 3 35 0 36 -12 0 -10 2 -11 6 -2 2 6 11 12 19
12 8 0 14 -6 15 -12 0 -7 4 -4 9 7 5 11 9 15 9 9 1 -10 58 -11 68 0 4 3 17 -1
31 -10 13 -9 22 -12 18 -6 -3 6 9 12 29 14 26 3 35 0 36 -12 0 -10 2 -11 6 -2
2 6 11 12 19 12 8 0 14 -6 15 -12 0 -7 4 -4 9 7 5 11 9 15 9 9 1 -10 52 -11
69 0 5 3 18 -1 28 -8 10 -8 23 -11 29 -7 5 5 20 11 33 14 16 4 22 1 23 -11 0
-11 2 -12 6 -4 2 6 11 12 19 12 8 0 14 -6 15 -12 0 -7 4 -4 9 7 5 11 9 15 9 9
1 -10 58 -11 68 0 4 3 17 -1 31 -10 13 -9 22 -12 18 -6 -3 6 9 12 29 14 26 3
35 0 36 -12 0 -10 2 -11 6 -2 6 16 33 16 34 0 0 -7 4 -4 9 7 5 11 9 15 9 9 1
-10 52 -11 69 0 5 3 18 -1 28 -8 10 -8 23 -11 29 -7 5 5 20 11 33 14 16 4 22
1 23 -11 0 -11 2 -12 6 -4 2 6 11 12 19 12 8 0 14 -6 15 -12 0 -7 4 -4 9 7 5
11 9 15 9 9 1 -10 58 -11 68 0 4 3 17 -1 31 -10 13 -9 22 -12 18 -6 -3 6 9 12
29 14 26 3 35 0 36 -12 0 -10 2 -11 6 -2 2 6 11 12 19 12 8 0 14 -6 15 -12 0
-7 4 -4 9 7 5 11 9 15 9 9 1 -10 58 -11 68 0 4 3 17 -1 29 -9 15 -10 25 -11
29 -4 4 5 35 9 71 8 66 -2 74 0 78 23 1 7 6 19 10 27 6 9 5 12 -1 8 -6 -4 -10
23 -9 73 0 47 4 76 10 73 5 -4 6 -1 0 8 -13 21 -14 160 0 152 8 -5 8 -3 0 8
-7 9 -10 65 -10 150 l1 135 -24 2 c-13 1 -31 8 -39 15 -13 9 -14 9 -8 0 5 -9
-1 -13 -19 -13 -18 0 -24 4 -19 13 6 10 4 10 -7 0 -7 -7 -23 -13 -36 -13 -13
0 -23 6 -24 13 0 10 -2 10 -6 0 -2 -7 -15 -13 -27 -13 -12 0 -28 6 -35 13 -10
8 -12 8 -7 0 9 -16 -96 -16 -106 0 -6 9 -8 9 -8 0 0 -7 -10 -13 -23 -13 -13 0
-29 6 -36 13 -11 10 -13 10 -7 0 5 -9 0 -13 -16 -13 -13 0 -30 6 -37 13 -9 7
-12 8 -7 0 8 -15 -116 -15 -126 1 -6 8 -8 8 -8 -1 0 -16 -170 -16 -170 0 0 9
-2 9 -8 1 -4 -8 -45 -12 -117 -12 -72 0 -113 4 -117 12 -6 8 -8 8 -8 -1 0 -15
-219 -15 -239 1 -11 8 -13 8 -8 -1 10 -16 -95 -16 -105 0 -6 9 -8 9 -8 0 0
-17 -42 -17 -59 0 -11 9 -13 9 -7 0 10 -17 -35 -17 -53 0 -10 8 -12 8 -7 0 9
-16 -96 -16 -106 0 -6 9 -8 9 -8 0 0 -17 -42 -17 -59 -1 -11 10 -13 10 -7 1
10 -17 -35 -17 -53 -1 -9 8 -12 9 -7 1 8 -15 -116 -15 -126 1 -6 8 -8 8 -8 -1
0 -16 -170 -16 -170 0 0 9 -2 9 -8 1 -4 -8 -45 -12 -117 -12 -72 0 -113 4
-117 12 -6 8 -8 8 -8 -1 0 -15 -219 -15 -239 1 -11 8 -13 8 -8 -1 10 -16 -95
-16 -105 0 -6 9 -8 9 -8 0 0 -7 -10 -13 -23 -13 -13 0 -29 6 -36 13 -11 10
-13 10 -7 0 5 -9 0 -13 -16 -13 -13 0 -30 6 -37 13 -9 8 -12 8 -7 0 4 -8 -9
-12 -49 -12 -35 0 -55 5 -55 12 0 7 -4 6 -10 -3 -7 -12 -12 -12 -22 -2 -6 6
-17 12 -23 12 -5 0 -3 -5 5 -10 12 -8 9 -9 -12 -8 -20 2 -24 6 -17 14 7 8 6
15 -2 20 -8 5 -9 3 -4 -6 5 -9 4 -11 -3 -6 -8 5 -9 13 -2 25 5 10 7 28 5 41
-3 17 -1 21 13 16 14 -5 13 -3 -2 9 -11 8 -14 15 -7 15 7 0 9 5 5 11 -3 6 0
15 7 20 11 6 11 11 2 20 -10 10 -10 16 0 28 10 12 9 13 -2 6 -11 -6 -12 -5 -5
6 5 8 7 22 5 32 -1 10 6 25 16 34 10 8 13 12 6 9 -6 -4 -14 -2 -18 4 -3 5 -2
10 4 10 5 0 8 11 5 24 -2 14 0 27 5 30 5 4 7 19 5 35 -3 18 1 35 10 44 12 12
13 17 3 20 -9 4 -9 7 1 15 7 5 10 16 6 27 -5 13 -4 16 5 10 10 -6 11 -3 2 14
-10 18 -9 21 6 21 10 0 14 4 8 8 -12 9 -20 46 -8 39 7 -5 12 24 14 85 0 10 5
20 10 23 5 4 7 11 3 16 -3 6 2 17 12 25 11 9 13 12 5 8 -11 -6 -13 -3 -7 12 5
10 9 28 11 39 1 11 4 21 5 23 1 1 4 11 5 22 1 11 4 23 5 28 1 4 2 10 1 15 0 4
4 7 10 7 6 0 9 7 6 15 -4 8 -2 17 4 20 5 4 7 10 4 15 -7 11 5 41 14 36 4 -3 7
9 7 27 -1 18 4 38 10 44 7 7 10 22 7 33 -3 12 0 20 6 20 7 0 9 -5 5 -12 -4 -7
-3 -8 5 -4 9 6 9 11 1 21 -11 14 2 51 25 67 6 5 5 8 -2 8 -10 0 -10 6 -1 25 6
14 15 25 20 25 4 0 8 5 8 11 0 5 -5 7 -11 4 -6 -4 -5 2 2 13 7 12 16 19 19 17
4 -2 7 2 7 10 0 8 -4 12 -9 9 -4 -3 -8 -1 -8 5 0 5 10 13 21 16 14 5 18 10 10
14 -9 6 -8 15 3 36 8 16 12 33 9 38 -3 6 -1 7 5 3 8 -4 12 0 12 11 0 23 22 73
32 73 4 0 5 7 2 15 -4 8 -1 15 5 15 6 0 10 3 10 8 -4 25 3 42 19 43 9 0 12 3
6 5 -13 5 7 55 34 87 8 9 12 20 9 23 -3 4 2 14 11 23 10 9 11 12 3 6 -11 -8
-11 -3 3 23 9 17 19 32 22 32 3 0 2 -5 -2 -12 -4 -7 -3 -8 5 -4 9 6 9 11 0 22
-9 11 -8 14 7 14 16 0 17 2 4 10 -14 9 -13 11 9 14 5 0 13 5 18 10 5 5 3 6 -4
2 -7 -4 -13 -2 -13 3 0 6 5 11 11 11 5 0 7 5 4 10 -3 6 2 10 12 10 15 0 16 2
3 10 -12 8 -12 10 -1 10 8 0 11 3 8 7 -4 3 1 12 11 19 9 7 17 23 17 35 0 12 6
24 14 27 9 3 11 0 6 -8 -5 -9 -4 -11 4 -6 9 6 9 11 1 21 -8 9 -6 14 5 19 9 3
13 10 10 16 -7 12 19 53 28 43 4 -3 7 2 7 13 1 24 24 56 35 46 5 -4 5 -2 2 5
-4 6 -2 17 5 25 7 7 14 20 16 28 2 8 8 17 13 18 5 2 9 10 9 18 0 8 5 14 10 14
6 0 10 7 10 16 0 11 5 14 16 10 14 -5 15 -4 4 9 -10 12 -10 15 4 15 10 0 15 4
11 9 -3 6 7 22 22 37 16 15 19 21 8 13 -20 -13 -20 -13 -1 8 10 13 24 20 30
16 6 -4 4 2 -4 13 -8 10 -11 16 -6 12 11 -10 35 14 29 30 -4 8 0 10 11 6 9 -4
16 -3 15 2 -5 27 31 80 45 66 4 -4 7 -2 6 3 -4 20 13 55 26 55 7 0 16 5 20 12
5 7 2 9 -7 3 -8 -4 -3 3 11 16 14 13 21 22 15 19 -6 -3 -3 2 7 11 9 9 14 20
10 24 -4 5 1 5 10 2 13 -4 15 -2 11 10 -4 11 -2 14 5 9 7 -4 12 -1 12 7 0 8 7
17 15 21 8 3 15 13 15 22 0 11 5 14 16 10 15 -6 15 -4 3 11 -8 9 -9 14 -3 10
7 -4 18 1 25 10 12 14 12 16 -1 8 -12 -6 -13 -6 -2 6 11 12 14 12 23 -1 8 -11
9 -9 4 9 -6 19 -4 23 8 18 11 -4 14 -2 10 8 -3 8 2 18 11 21 9 3 13 11 10 16
-4 6 3 8 17 4 13 -3 18 -3 11 0 -10 5 -10 9 -1 20 6 8 15 12 19 9 5 -3 12 0
16 6 4 8 3 9 -4 5 -7 -4 -12 -2 -12 3 0 6 9 16 20 23 11 7 20 19 20 27 0 11 3
11 17 0 13 -11 15 -11 9 -1 -5 9 3 23 23 41 17 15 28 31 23 36 -4 4 -2 6 4 2
5 -3 18 5 28 18 10 14 23 22 28 19 4 -3 8 -2 7 3 -5 28 2 36 16 17 11 -14 14
-15 9 -2 -6 19 60 93 76 83 5 -3 7 0 4 8 -7 19 22 41 42 33 15 -6 15 -4 3 11
-8 10 -9 14 -2 10 7 -5 16 1 23 13 6 11 18 20 26 20 9 0 12 5 8 12 -5 8 -2 9
10 5 9 -4 15 -3 12 2 -3 5 2 15 11 22 14 12 16 12 8 0 -6 -10 -4 -12 4 -7 7 5
10 15 6 23 -5 14 -3 14 12 2 13 -11 15 -11 9 -1 -5 9 -1 15 14 19 13 3 19 11
16 19 -3 8 0 14 7 14 7 0 25 11 41 25 17 14 36 23 42 21 9 -3 11 1 7 11 -5 12
-2 15 10 10 9 -3 16 -3 16 1 -4 27 1 34 17 22 8 -8 14 -9 13 -4 -4 21 2 35 11
29 6 -3 10 -1 10 5 0 6 5 8 10 5 6 -3 10 1 10 10 0 9 5 13 10 10 6 -3 10 -1
10 5 0 7 7 10 15 6 8 -3 15 0 15 6 0 17 42 49 57 43 8 -3 11 0 8 6 -4 6 2 13
14 16 11 3 18 9 16 14 -3 4 3 6 15 4 11 -2 23 1 26 7 5 7 2 8 -7 4 -8 -4 -5
-1 5 8 10 8 23 13 28 10 5 -3 7 -1 6 4 -2 6 1 10 6 10 5 0 13 7 18 16 5 9 16
16 23 16 8 0 15 5 15 10 0 6 7 10 15 10 8 0 15 5 15 11 0 8 5 7 15 -1 13 -11
14 -10 9 4 -6 15 10 22 39 17 4 0 6 5 5 11 -2 8 6 13 18 12 14 0 20 4 17 12
-3 9 2 12 16 9 12 -2 19 0 16 6 -4 5 0 9 9 9 8 0 16 4 18 8 6 16 119 72 130
66 7 -5 8 -2 3 6 -6 10 -4 12 8 7 11 -4 17 -1 17 8 0 9 6 12 16 8 8 -3 25 3
37 13 32 28 83 54 91 47 3 -3 6 -1 6 6 0 7 7 11 15 8 8 -4 17 -1 21 5 5 7 2 8
-7 3 -11 -6 -12 -5 -2 5 10 11 15 11 28 0 13 -11 14 -10 9 5 -5 12 -4 16 3 12
6 -4 17 -1 25 6 15 15 51 31 44 19 -3 -5 1 -9 8 -9 8 0 12 7 8 15 -3 10 -1 13
6 8 7 -4 12 -2 12 5 0 7 10 9 25 7 13 -3 22 -1 19 4 -3 4 8 11 25 14 17 4 31
11 31 16 0 6 7 5 15 -2 13 -11 14 -10 9 6 -4 10 -4 16 1 12 4 -4 14 -3 22 3 7
6 13 8 13 4 0 -4 12 0 26 10 15 9 23 12 20 6 -4 -6 -2 -11 3 -11 6 0 11 5 11
11 0 6 7 8 16 5 8 -3 13 -2 10 3 -10 15 26 22 42 9 9 -8 13 -8 9 -2 -4 7 0 17
7 23 9 8 16 8 20 2 4 -6 13 -8 21 -5 8 4 13 10 10 14 -8 13 18 18 39 8 13 -7
16 -7 12 1 -5 7 1 11 14 11 12 0 19 4 15 9 -3 6 4 8 15 6 11 -2 20 0 20 5 0 5
11 7 25 4 14 -2 25 0 25 6 0 7 8 9 21 5 16 -5 19 -4 14 6 -6 9 -3 11 8 6 10
-4 17 -2 17 4 0 7 11 9 25 7 15 -3 22 -1 18 5 -4 6 4 8 20 5 17 -3 24 -1 20 5
-4 6 0 8 10 4 9 -3 19 -2 22 3 3 5 14 7 25 5 11 -2 20 1 20 7 0 5 7 8 15 4 8
-3 15 0 16 7 0 9 2 9 6 0 2 -7 9 -13 14 -13 6 0 7 5 3 12 -5 8 -2 9 9 5 10 -3
17 -2 17 3 0 5 8 8 18 8 9 0 26 3 36 7 15 7 17 5 11 -6 -7 -12 -6 -12 9 1 10
8 27 15 37 17 10 2 29 5 42 7 12 2 28 -1 35 -7 9 -7 11 -5 5 9 -6 16 -5 17 9
6 13 -10 17 -10 21 0 4 11 7 10 15 0 8 -11 10 -11 15 1 6 16 23 17 46 3 9 -6
12 -5 8 1 -10 16 18 24 33 10 10 -9 11 -9 6 1 -5 8 2 12 23 13 54 2 66 4 78
12 6 4 14 1 17 -5 5 -10 7 -10 12 0 5 10 9 10 22 0 10 -9 13 -9 9 -1 -9 15 35
14 45 -2 5 -6 8 -3 8 6 0 13 9 16 45 14 27 -1 45 2 45 9 0 6 5 4 10 -4 6 -10
10 -11 10 -3z m-1765 -487 c-3 -5 -12 -10 -18 -10 -7 0 -6 4 3 10 19 12 23 12
15 0z m-2300 -5890 c3 -5 1 -10 -4 -10 -6 0 -11 5 -11 10 0 6 2 10 4 10 3 0 8
-4 11 -10z m8785 -1534 c0 -3 -4 -8 -10 -11 -5 -3 -10 -1 -10 4 0 6 5 11 10
11 6 0 10 -2 10 -4z m-1456 -550 c-3 -8 -13 -17 -22 -21 -13 -5 -13 -2 3 15
21 24 26 25 19 6z m-4919 -544 c-3 -3 -11 0 -18 7 -9 10 -8 11 6 5 10 -3 15
-9 12 -12z"/>
<path d="M3550 10086 c0 -2 7 -7 16 -10 8 -3 12 -2 9 4 -6 10 -25 14 -25 6z"/>
<path d="M8750 10016 c0 -2 8 -10 18 -17 15 -13 16 -12 3 4 -13 16 -21 21 -21
13z"/>
<path d="M2916 9602 c-3 -5 1 -9 9 -9 8 0 12 4 9 9 -3 4 -7 8 -9 8 -2 0 -6 -4
-9 -8z"/>
<path d="M9336 9518 c3 -4 11 -5 19 -1 21 7 19 12 -4 10 -11 0 -18 -5 -15 -9z"/>
<path d="M10016 8747 c3 -10 9 -15 12 -12 3 3 0 11 -7 18 -10 9 -11 8 -5 -6z"/>
<path d="M5813 7189 c-5 -5 -19 -11 -31 -12 -16 -1 -18 -4 -10 -14 8 -10 6
-13 -8 -13 -12 0 -15 -3 -8 -8 17 -11 26 -49 14 -57 -6 -3 -7 -11 -3 -18 13
-21 9 -117 -5 -117 -7 0 -10 -5 -7 -10 4 -6 9 -8 13 -6 4 2 7 -7 7 -20 0 -13
-6 -24 -13 -24 -7 0 -10 -5 -7 -10 4 -6 10 -8 14 -6 14 9 6 -39 -9 -52 -13
-12 -13 -13 0 -9 10 3 15 -3 15 -19 0 -15 -5 -22 -12 -20 -7 3 -10 -1 -6 -9 3
-8 8 -13 12 -11 3 2 6 -7 6 -20 0 -13 -6 -24 -13 -24 -7 0 -10 -5 -7 -10 4 -6
9 -8 13 -6 4 2 7 -7 7 -20 0 -15 -5 -22 -12 -20 -7 3 -10 -1 -6 -9 3 -8 8 -13
12 -11 3 2 6 -7 6 -20 0 -13 -6 -24 -13 -24 -7 0 -10 -5 -7 -10 4 -6 10 -8 14
-6 14 9 6 -39 -9 -52 -13 -12 -13 -13 0 -9 10 3 15 -3 15 -19 0 -13 -3 -24 -7
-24 -4 0 -5 -6 -2 -14 3 -8 0 -17 -7 -22 -8 -5 -10 -3 -4 7 7 11 6 12 -6 3
-17 -14 -156 -16 -165 -3 -3 6 -10 6 -17 1 -16 -12 -129 -13 -143 -1 -7 6 -15
6 -18 1 -7 -12 -134 -13 -142 -1 -4 6 -10 6 -17 0 -7 -5 -45 -8 -85 -8 -39 1
-72 -2 -72 -7 0 -6 -7 -1 -16 10 -8 10 -12 13 -8 5 5 -11 2 -13 -13 -9 -26 7
-52 -30 -31 -43 7 -5 8 -9 2 -9 -6 0 -11 -7 -11 -15 0 -8 5 -15 11 -15 5 0 1
-7 -10 -16 -10 -8 -14 -13 -8 -10 16 8 17 -76 1 -86 -9 -6 -9 -8 1 -8 7 0 10
-4 7 -10 -3 -5 0 -10 7 -10 8 0 9 -3 3 -8 -14 -10 -15 -52 -2 -52 6 0 3 -6 -8
-13 -14 -11 -15 -16 -5 -22 9 -6 11 -4 5 5 -5 9 -4 11 4 6 7 -5 9 -12 3 -19
-5 -7 -7 -32 -5 -56 2 -29 -1 -47 -9 -53 -10 -6 -10 -8 0 -8 7 0 10 -4 7 -10
-3 -5 -1 -10 5 -10 6 0 8 -5 3 -12 -13 -22 -14 -50 -1 -42 7 5 8 3 3 -7 -10
-16 -14 -140 -4 -134 3 3 15 -2 25 -9 10 -8 23 -11 29 -7 5 5 20 11 33 14 16
4 22 1 22 -11 0 -15 2 -15 10 -2 9 13 11 13 20 0 8 -13 10 -13 10 1 0 14 6 16
34 9 19 -4 38 -5 41 -2 3 4 10 0 15 -8 8 -12 10 -11 10 5 1 20 1 20 15 1 15
-20 15 -20 16 0 0 10 3 14 5 8 4 -10 61 -11 71 0 4 3 17 -1 31 -10 13 -9 22
-12 18 -6 -3 6 9 12 29 14 26 3 35 0 36 -12 0 -10 2 -11 6 -2 2 6 11 12 19 12
8 0 14 -6 15 -12 0 -7 4 -4 9 7 5 11 9 15 9 9 1 -10 58 -11 68 0 4 3 17 -1 29
-9 14 -9 25 -11 29 -5 3 5 26 9 51 8 30 0 41 -4 33 -9 -11 -7 -11 -9 -1 -9 10
0 13 -65 13 -307 0 -170 1 -321 2 -338 1 -16 -5 -36 -13 -43 -13 -12 -13 -13
1 -9 12 4 15 -1 14 -17 -3 -22 -2 -22 156 -20 111 1 159 -2 159 -10 0 -7 3 -7
8 -1 11 15 56 19 47 4 -6 -8 -4 -10 6 -3 8 5 25 10 37 12 17 2 22 -1 16 -10
-6 -10 -4 -10 7 -2 8 6 60 10 121 10 58 -1 104 3 101 7 -3 4 1 15 9 24 9 12 9
15 1 9 -9 -5 -13 0 -13 16 0 13 6 30 13 37 8 10 9 12 0 7 -9 -5 -12 9 -11 53
1 39 5 58 12 54 6 -3 5 0 -1 8 -7 7 -13 21 -13 31 0 10 6 18 13 18 8 0 9 3 1
8 -15 9 -15 94 0 85 6 -4 6 0 -1 8 -16 19 -14 91 1 82 6 -3 5 0 -1 8 -16 16
-17 33 -2 24 6 -4 5 3 -3 14 -11 18 -11 23 2 31 12 8 12 10 1 10 -11 0 -11 3
0 17 10 11 10 14 2 9 -9 -5 -13 1 -13 19 0 18 4 24 13 19 8 -5 8 -2 -2 9 -11
14 -11 17 0 17 11 0 11 2 2 8 -12 8 -16 70 -6 105 4 15 7 16 21 5 9 -7 13 -8
9 -2 -4 8 5 13 28 16 26 3 35 0 36 -12 0 -10 2 -11 6 -2 2 6 11 12 19 12 8 0
14 -6 15 -12 0 -7 4 -4 9 7 5 11 9 15 9 9 1 -10 58 -11 68 0 4 3 17 -1 31 -10
13 -9 22 -12 18 -6 -3 6 9 12 29 14 26 3 35 0 36 -12 0 -10 2 -11 6 -2 2 6 11
12 19 12 8 0 14 -6 15 -12 0 -7 4 -4 9 7 5 11 9 15 9 9 1 -10 52 -11 69 0 5 3
18 -1 28 -8 10 -8 23 -11 29 -7 5 5 20 11 33 14 16 4 22 1 23 -11 0 -11 2 -12
6 -4 2 6 11 12 19 12 8 0 14 -6 15 -12 0 -7 4 -4 9 7 5 11 9 15 9 10 1 -6 18
-9 41 -7 23 2 47 -1 55 -8 13 -11 14 -10 9 4 -4 10 0 18 10 22 9 3 16 10 16
16 0 5 -4 7 -8 4 -4 -2 -8 15 -7 40 0 24 3 44 8 44 4 0 7 5 7 11 0 5 -3 8 -7
6 -5 -3 -8 6 -8 19 0 13 3 24 8 24 4 0 7 5 7 11 0 5 -3 8 -7 6 -5 -3 -8 6 -8
19 0 13 6 24 13 24 7 0 10 5 7 10 -4 6 -9 8 -13 6 -4 -2 -7 7 -7 20 0 15 5 22
12 20 7 -3 10 1 6 9 -3 8 -8 13 -12 11 -3 -2 -6 61 -6 140 0 95 4 143 10 140
6 -2 11 5 11 15 0 12 -4 15 -12 8 -8 -7 -10 -2 -6 16 5 28 7 28 -138 26 -48 0
-77 4 -82 12 -6 9 -8 9 -8 0 0 -7 -20 -12 -55 -12 -40 0 -53 4 -49 12 5 8 2 8
-7 0 -7 -7 -23 -13 -36 -13 -13 0 -23 6 -23 13 0 9 -2 9 -8 0 -10 -16 -115
-16 -106 0 5 8 3 8 -7 0 -7 -7 -24 -13 -37 -13 -16 0 -21 4 -16 13 6 10 4 10
-7 0 -7 -7 -23 -13 -36 -13 -13 0 -23 6 -23 13 0 9 -2 9 -8 0 -7 -11 -88 -16
-105 -6 -4 3 -2 12 5 21 10 12 10 14 1 8 -8 -4 -13 -1 -13 8 0 9 6 16 13 16 8
0 8 3 2 8 -16 11 -18 65 -2 56 9 -5 9 -4 0 7 -7 7 -13 21 -13 31 0 10 6 18 13
18 8 0 8 3 1 8 -15 10 -16 104 -1 96 8 -5 8 -2 0 7 -7 7 -13 21 -13 31 0 10 6
18 13 18 8 0 8 3 1 8 -15 10 -16 104 -1 96 8 -5 8 -2 0 7 -7 7 -13 21 -13 31
0 10 6 18 13 18 8 0 8 3 1 8 -15 10 -16 104 -1 96 8 -5 8 -2 0 7 -7 7 -13 21
-13 30 0 10 6 20 13 22 10 4 10 6 0 6 -7 1 -13 8 -13 17 0 9 5 12 13 8 9 -6 9
-4 -1 8 -7 9 -12 20 -11 24 4 25 -6 29 -78 28 -43 0 -84 4 -92 10 -11 8 -13 8
-8 0 8 -13 -141 -13 -162 0 -9 6 -12 5 -8 -1 8 -13 -42 -12 -62 1 -9 6 -12 5
-8 -1 4 -6 -31 -9 -93 -9 -54 0 -97 3 -94 8 7 11 0 10 -13 -3z"/>
<path d="M5755 7100 c3 -5 8 -10 11 -10 2 0 4 5 4 10 0 6 -5 10 -11 10 -5 0
-7 -4 -4 -10z"/>
<path d="M5755 5120 c3 -5 8 -10 11 -10 2 0 4 5 4 10 0 6 -5 10 -11 10 -5 0
-7 -4 -4 -10z"/>
<path d="M10677 4979 c7 -7 15 -10 18 -7 3 3 -2 9 -12 12 -14 6 -15 5 -6 -5z"/>
<path d="M1967 3799 c7 -7 15 -10 18 -7 3 3 -2 9 -12 12 -14 6 -15 5 -6 -5z"/>
<path d="M3080 2466 c0 -2 8 -10 18 -17 15 -13 16 -12 3 4 -13 16 -21 21 -21
13z"/>
<path d="M8914 2304 c-18 -14 -18 -15 4 -4 12 6 22 13 22 15 0 8 -5 6 -26 -11z"/>
<path d="M5756 1853 c-6 -14 -5 -15 5 -6 7 7 10 15 7 18 -3 3 -9 -2 -12 -12z"/>
<path d="M5755 12060 c3 -5 8 -10 11 -10 2 0 4 5 4 10 0 6 -5 10 -11 10 -5 0
-7 -4 -4 -10z"/>
<path d="M8638 10873 c7 -3 16 -2 19 1 4 3 -2 6 -13 5 -11 0 -14 -3 -6 -6z"/>
<path d="M9036 10647 c3 -10 9 -15 12 -12 3 3 0 11 -7 18 -10 9 -11 8 -5 -6z"/>
<path d="M9190 10536 c0 -2 8 -10 18 -17 15 -13 16 -12 3 4 -13 16 -21 21 -21
13z"/>
<path d="M9340 10426 c0 -2 8 -10 18 -17 15 -13 16 -12 3 4 -13 16 -21 21 -21
13z"/>
<path d="M2715 10320 c3 -5 8 -10 11 -10 2 0 4 5 4 10 0 6 -5 10 -11 10 -5 0
-7 -4 -4 -10z"/>
<path d="M1570 9060 c-9 -6 -10 -10 -3 -10 6 0 15 5 18 10 8 12 4 12 -15 0z"/>
<path d="M10995 3809 c-4 -6 -5 -12 -2 -15 2 -3 7 2 10 11 7 17 1 20 -8 4z"/>
<path d="M1590 3106 c0 -2 7 -7 16 -10 8 -3 12 -2 9 4 -6 10 -25 14 -25 6z"/>
<path d="M2090 2476 c0 -2 8 -10 18 -17 15 -13 16 -12 3 4 -13 16 -21 21 -21
13z"/>
<path d="M9495 1900 c-3 -5 -1 -10 4 -10 6 0 11 5 11 10 0 6 -2 10 -4 10 -3 0
-8 -4 -11 -10z"/>
<path d="M2720 1886 c0 -2 8 -10 18 -17 15 -13 16 -12 3 4 -13 16 -21 21 -21
13z"/>
<path d="M2816 1802 c-3 -5 1 -9 9 -9 8 0 12 4 9 9 -3 4 -7 8 -9 8 -2 0 -6 -4
-9 -8z"/>
<path d="M8480 1250 c-9 -6 -10 -10 -3 -10 6 0 15 5 18 10 8 12 4 12 -15 0z"/>
</g>
</svg>
